<svg width="430" height="254" viewBox="0 0 430 254" fill="none" xmlns="http://www.w3.org/2000/svg">
<g filter="url(#filter0_d_1_60)">
<rect x="30" y="30" width="370" height="194" rx="7.17143" fill="white"/>
</g>
<line x1="220.677" y1="72" x2="220.677" y2="195" stroke="#8F94A4" stroke-opacity="0.2"/>
<line x1="152.61" y1="72" x2="152.61" y2="195" stroke="#8F94A4" stroke-opacity="0.2"/>
<line x1="288.745" y1="72" x2="288.745" y2="195" stroke="#8F94A4" stroke-opacity="0.2"/>
<line x1="321.5" y1="72" x2="321.5" y2="195" stroke="#8F94A4" stroke-opacity="0.2"/>
<line x1="350.5" y1="72" x2="350.5" y2="195" stroke="#8F94A4" stroke-opacity="0.2"/>
<line x1="118.576" y1="72" x2="118.576" y2="195" stroke="#8F94A4" stroke-opacity="0.2"/>
<line x1="254.711" y1="72" x2="254.711" y2="195" stroke="#8F94A4" stroke-opacity="0.2"/>
<line x1="186.643" y1="72" x2="186.643" y2="195" stroke="#8F94A4" stroke-opacity="0.2"/>
<line x1="372" y1="148.959" x2="96" y2="148.959" stroke="#8F94A4" stroke-opacity="0.2"/>
<line x1="372" y1="87.4595" x2="96" y2="87.4594" stroke="#8F94A4" stroke-opacity="0.2"/>
<line x1="372" y1="179.709" x2="96" y2="179.709" stroke="#8F94A4" stroke-opacity="0.2"/>
<line x1="372" y1="118.209" x2="96" y2="118.209" stroke="#8F94A4" stroke-opacity="0.2"/>
<path d="M105.873 206V204.956H107.793V198.98L106.293 199.916L105.789 198.992L108.153 197.54H109.029V204.956H110.829V206H105.873ZM115.8 206V197.54H119.328C120.208 197.54 120.888 197.736 121.368 198.128C121.856 198.512 122.1 199.052 122.1 199.748C122.1 200.204 121.98 200.596 121.74 200.924C121.5 201.252 121.172 201.492 120.756 201.644C121.244 201.772 121.624 202.008 121.896 202.352C122.168 202.696 122.304 203.132 122.304 203.66C122.304 204.412 122.052 204.992 121.548 205.4C121.052 205.8 120.36 206 119.472 206H115.8ZM117 201.236H119.136C120.304 201.236 120.888 200.78 120.888 199.868C120.888 198.956 120.304 198.5 119.136 198.5H117V201.236ZM117 205.04H119.328C120.504 205.04 121.092 204.564 121.092 203.612C121.092 202.668 120.504 202.196 119.328 202.196H117V205.04ZM126.596 206.108C125.636 206.108 124.88 205.84 124.328 205.304C123.776 204.76 123.5 204.02 123.5 203.084C123.5 202.484 123.62 201.956 123.86 201.5C124.108 201.036 124.448 200.676 124.88 200.42C125.312 200.164 125.808 200.036 126.368 200.036C127.176 200.036 127.812 200.296 128.276 200.816C128.74 201.328 128.972 202.036 128.972 202.94V203.348H124.676C124.764 204.564 125.408 205.172 126.608 205.172C126.944 205.172 127.272 205.12 127.592 205.016C127.92 204.912 128.228 204.74 128.516 204.5L128.876 205.34C128.612 205.58 128.272 205.768 127.856 205.904C127.44 206.04 127.02 206.108 126.596 206.108ZM126.416 200.888C125.912 200.888 125.512 201.044 125.216 201.356C124.92 201.668 124.74 202.084 124.676 202.604H127.952C127.928 202.06 127.784 201.64 127.52 201.344C127.256 201.04 126.888 200.888 126.416 200.888ZM132.525 206.108C132.013 206.108 131.561 205.988 131.169 205.748C130.785 205.5 130.485 205.148 130.269 204.692C130.053 204.236 129.945 203.696 129.945 203.072C129.945 202.448 130.053 201.912 130.269 201.464C130.485 201.008 130.785 200.656 131.169 200.408C131.553 200.16 132.005 200.036 132.525 200.036C132.965 200.036 133.357 200.132 133.701 200.324C134.045 200.516 134.301 200.776 134.469 201.104V197.54H135.681V206H134.493V204.98C134.325 205.332 134.065 205.608 133.713 205.808C133.369 206.008 132.973 206.108 132.525 206.108ZM132.837 205.172C133.333 205.172 133.733 204.992 134.037 204.632C134.341 204.272 134.493 203.752 134.493 203.072C134.493 202.392 134.341 201.876 134.037 201.524C133.733 201.164 133.333 200.984 132.837 200.984C132.333 200.984 131.929 201.164 131.625 201.524C131.321 201.876 131.169 202.392 131.169 203.072C131.169 203.752 131.321 204.272 131.625 204.632C131.929 204.992 132.333 205.172 132.837 205.172Z" fill="#8F94A4"/>
<path d="M259.937 206.108C259.369 206.108 258.829 206.024 258.317 205.856C257.805 205.68 257.377 205.436 257.033 205.124L257.465 204.164C257.841 204.468 258.229 204.692 258.629 204.836C259.029 204.98 259.453 205.052 259.901 205.052C260.477 205.052 260.913 204.928 261.209 204.68C261.513 204.432 261.665 204.076 261.665 203.612C261.665 203.148 261.513 202.804 261.209 202.58C260.913 202.356 260.481 202.244 259.913 202.244H258.605V201.2H259.793C260.297 201.2 260.693 201.072 260.981 200.816C261.277 200.56 261.425 200.208 261.425 199.76C261.425 199.352 261.289 199.04 261.017 198.824C260.745 198.6 260.357 198.488 259.853 198.488C258.997 198.488 258.249 198.796 257.609 199.412L257.177 198.464C257.505 198.136 257.913 197.884 258.401 197.708C258.897 197.524 259.413 197.432 259.949 197.432C260.797 197.432 261.457 197.628 261.929 198.02C262.401 198.404 262.637 198.94 262.637 199.628C262.637 200.092 262.517 200.5 262.277 200.852C262.045 201.204 261.721 201.46 261.305 201.62C261.809 201.748 262.197 201.996 262.469 202.364C262.741 202.724 262.877 203.168 262.877 203.696C262.877 204.44 262.613 205.028 262.085 205.46C261.565 205.892 260.849 206.108 259.937 206.108ZM267.8 206V197.54H271.328C272.208 197.54 272.888 197.736 273.368 198.128C273.856 198.512 274.1 199.052 274.1 199.748C274.1 200.204 273.98 200.596 273.74 200.924C273.5 201.252 273.172 201.492 272.756 201.644C273.244 201.772 273.624 202.008 273.896 202.352C274.168 202.696 274.304 203.132 274.304 203.66C274.304 204.412 274.052 204.992 273.548 205.4C273.052 205.8 272.36 206 271.472 206H267.8ZM269 201.236H271.136C272.304 201.236 272.888 200.78 272.888 199.868C272.888 198.956 272.304 198.5 271.136 198.5H269V201.236ZM269 205.04H271.328C272.504 205.04 273.092 204.564 273.092 203.612C273.092 202.668 272.504 202.196 271.328 202.196H269V205.04ZM278.596 206.108C277.636 206.108 276.88 205.84 276.328 205.304C275.776 204.76 275.5 204.02 275.5 203.084C275.5 202.484 275.62 201.956 275.86 201.5C276.108 201.036 276.448 200.676 276.88 200.42C277.312 200.164 277.808 200.036 278.368 200.036C279.176 200.036 279.812 200.296 280.276 200.816C280.74 201.328 280.972 202.036 280.972 202.94V203.348H276.676C276.764 204.564 277.408 205.172 278.608 205.172C278.944 205.172 279.272 205.12 279.592 205.016C279.92 204.912 280.228 204.74 280.516 204.5L280.876 205.34C280.612 205.58 280.272 205.768 279.856 205.904C279.44 206.04 279.02 206.108 278.596 206.108ZM278.416 200.888C277.912 200.888 277.512 201.044 277.216 201.356C276.92 201.668 276.74 202.084 276.676 202.604H279.952C279.928 202.06 279.784 201.64 279.52 201.344C279.256 201.04 278.888 200.888 278.416 200.888ZM284.525 206.108C284.013 206.108 283.561 205.988 283.169 205.748C282.785 205.5 282.485 205.148 282.269 204.692C282.053 204.236 281.945 203.696 281.945 203.072C281.945 202.448 282.053 201.912 282.269 201.464C282.485 201.008 282.785 200.656 283.169 200.408C283.553 200.16 284.005 200.036 284.525 200.036C284.965 200.036 285.357 200.132 285.701 200.324C286.045 200.516 286.301 200.776 286.469 201.104V197.54H287.681V206H286.493V204.98C286.325 205.332 286.065 205.608 285.713 205.808C285.369 206.008 284.973 206.108 284.525 206.108ZM284.837 205.172C285.333 205.172 285.733 204.992 286.037 204.632C286.341 204.272 286.493 203.752 286.493 203.072C286.493 202.392 286.341 201.876 286.037 201.524C285.733 201.164 285.333 200.984 284.837 200.984C284.333 200.984 283.929 201.164 283.625 201.524C283.321 201.876 283.169 202.392 283.169 203.072C283.169 203.752 283.321 204.272 283.625 204.632C283.929 204.992 284.333 205.172 284.837 205.172Z" fill="#8F94A4"/>
<path d="M177.489 206V205.076L180.309 202.052C180.701 201.628 180.981 201.244 181.149 200.9C181.325 200.556 181.413 200.208 181.413 199.856C181.413 198.944 180.877 198.488 179.805 198.488C178.989 198.488 178.257 198.796 177.609 199.412L177.165 198.464C177.485 198.152 177.893 197.904 178.389 197.72C178.885 197.528 179.401 197.432 179.937 197.432C180.809 197.432 181.477 197.632 181.941 198.032C182.413 198.432 182.649 199.004 182.649 199.748C182.649 200.252 182.525 200.744 182.277 201.224C182.037 201.704 181.657 202.216 181.137 202.76L179.049 204.956H182.985V206H177.489ZM187.8 206V197.54H191.328C192.208 197.54 192.888 197.736 193.368 198.128C193.856 198.512 194.1 199.052 194.1 199.748C194.1 200.204 193.98 200.596 193.74 200.924C193.5 201.252 193.172 201.492 192.756 201.644C193.244 201.772 193.624 202.008 193.896 202.352C194.168 202.696 194.304 203.132 194.304 203.66C194.304 204.412 194.052 204.992 193.548 205.4C193.052 205.8 192.36 206 191.472 206H187.8ZM189 201.236H191.136C192.304 201.236 192.888 200.78 192.888 199.868C192.888 198.956 192.304 198.5 191.136 198.5H189V201.236ZM189 205.04H191.328C192.504 205.04 193.092 204.564 193.092 203.612C193.092 202.668 192.504 202.196 191.328 202.196H189V205.04ZM198.596 206.108C197.636 206.108 196.88 205.84 196.328 205.304C195.776 204.76 195.5 204.02 195.5 203.084C195.5 202.484 195.62 201.956 195.86 201.5C196.108 201.036 196.448 200.676 196.88 200.42C197.312 200.164 197.808 200.036 198.368 200.036C199.176 200.036 199.812 200.296 200.276 200.816C200.74 201.328 200.972 202.036 200.972 202.94V203.348H196.676C196.764 204.564 197.408 205.172 198.608 205.172C198.944 205.172 199.272 205.12 199.592 205.016C199.92 204.912 200.228 204.74 200.516 204.5L200.876 205.34C200.612 205.58 200.272 205.768 199.856 205.904C199.44 206.04 199.02 206.108 198.596 206.108ZM198.416 200.888C197.912 200.888 197.512 201.044 197.216 201.356C196.92 201.668 196.74 202.084 196.676 202.604H199.952C199.928 202.06 199.784 201.64 199.52 201.344C199.256 201.04 198.888 200.888 198.416 200.888ZM204.525 206.108C204.013 206.108 203.561 205.988 203.169 205.748C202.785 205.5 202.485 205.148 202.269 204.692C202.053 204.236 201.945 203.696 201.945 203.072C201.945 202.448 202.053 201.912 202.269 201.464C202.485 201.008 202.785 200.656 203.169 200.408C203.553 200.16 204.005 200.036 204.525 200.036C204.965 200.036 205.357 200.132 205.701 200.324C206.045 200.516 206.301 200.776 206.469 201.104V197.54H207.681V206H206.493V204.98C206.325 205.332 206.065 205.608 205.713 205.808C205.369 206.008 204.973 206.108 204.525 206.108ZM204.837 205.172C205.333 205.172 205.733 204.992 206.037 204.632C206.341 204.272 206.493 203.752 206.493 203.072C206.493 202.392 206.341 201.876 206.037 201.524C205.733 201.164 205.333 200.984 204.837 200.984C204.333 200.984 203.929 201.164 203.625 201.524C203.321 201.876 203.169 202.392 203.169 203.072C203.169 203.752 203.321 204.272 203.625 204.632C203.929 204.992 204.333 205.172 204.837 205.172Z" fill="#8F94A4"/>
<path d="M342.837 206V204.284H339.033V203.36L343.053 197.54H344.073V203.24H345.309V204.284H344.073V206H342.837ZM342.837 203.24V199.484L340.269 203.24H342.837ZM349.8 206V197.54H353.328C354.208 197.54 354.888 197.736 355.368 198.128C355.856 198.512 356.1 199.052 356.1 199.748C356.1 200.204 355.98 200.596 355.74 200.924C355.5 201.252 355.172 201.492 354.756 201.644C355.244 201.772 355.624 202.008 355.896 202.352C356.168 202.696 356.304 203.132 356.304 203.66C356.304 204.412 356.052 204.992 355.548 205.4C355.052 205.8 354.36 206 353.472 206H349.8ZM351 201.236H353.136C354.304 201.236 354.888 200.78 354.888 199.868C354.888 198.956 354.304 198.5 353.136 198.5H351V201.236ZM351 205.04H353.328C354.504 205.04 355.092 204.564 355.092 203.612C355.092 202.668 354.504 202.196 353.328 202.196H351V205.04ZM360.596 206.108C359.636 206.108 358.88 205.84 358.328 205.304C357.776 204.76 357.5 204.02 357.5 203.084C357.5 202.484 357.62 201.956 357.86 201.5C358.108 201.036 358.448 200.676 358.88 200.42C359.312 200.164 359.808 200.036 360.368 200.036C361.176 200.036 361.812 200.296 362.276 200.816C362.74 201.328 362.972 202.036 362.972 202.94V203.348H358.676C358.764 204.564 359.408 205.172 360.608 205.172C360.944 205.172 361.272 205.12 361.592 205.016C361.92 204.912 362.228 204.74 362.516 204.5L362.876 205.34C362.612 205.58 362.272 205.768 361.856 205.904C361.44 206.04 361.02 206.108 360.596 206.108ZM360.416 200.888C359.912 200.888 359.512 201.044 359.216 201.356C358.92 201.668 358.74 202.084 358.676 202.604H361.952C361.928 202.06 361.784 201.64 361.52 201.344C361.256 201.04 360.888 200.888 360.416 200.888ZM366.525 206.108C366.013 206.108 365.561 205.988 365.169 205.748C364.785 205.5 364.485 205.148 364.269 204.692C364.053 204.236 363.945 203.696 363.945 203.072C363.945 202.448 364.053 201.912 364.269 201.464C364.485 201.008 364.785 200.656 365.169 200.408C365.553 200.16 366.005 200.036 366.525 200.036C366.965 200.036 367.357 200.132 367.701 200.324C368.045 200.516 368.301 200.776 368.469 201.104V197.54H369.681V206H368.493V204.98C368.325 205.332 368.065 205.608 367.713 205.808C367.369 206.008 366.973 206.108 366.525 206.108ZM366.837 205.172C367.333 205.172 367.733 204.992 368.037 204.632C368.341 204.272 368.493 203.752 368.493 203.072C368.493 202.392 368.341 201.876 368.037 201.524C367.733 201.164 367.333 200.984 366.837 200.984C366.333 200.984 365.929 201.164 365.625 201.524C365.321 201.876 365.169 202.392 365.169 203.072C365.169 203.752 365.321 204.272 365.625 204.632C365.929 204.992 366.333 205.172 366.837 205.172Z" fill="#8F94A4"/>
<path d="M52.9 91.108C51.876 91.108 51.084 90.744 50.524 90.016C49.972 89.288 49.696 88.268 49.696 86.956C49.696 85.508 50.008 84.392 50.632 83.608C51.256 82.824 52.12 82.432 53.224 82.432C53.656 82.432 54.092 82.52 54.532 82.696C54.972 82.864 55.34 83.104 55.636 83.416L55.204 84.352C54.916 84.064 54.596 83.848 54.244 83.704C53.9 83.56 53.552 83.488 53.2 83.488C52.456 83.488 51.884 83.76 51.484 84.304C51.092 84.84 50.896 85.644 50.896 86.716V87.196C51.056 86.708 51.332 86.328 51.724 86.056C52.124 85.776 52.584 85.636 53.104 85.636C53.6 85.636 54.036 85.752 54.412 85.984C54.796 86.216 55.096 86.536 55.312 86.944C55.528 87.344 55.636 87.804 55.636 88.324C55.636 88.868 55.52 89.352 55.288 89.776C55.056 90.192 54.732 90.52 54.316 90.76C53.908 90.992 53.436 91.108 52.9 91.108ZM52.828 90.1C53.316 90.1 53.712 89.94 54.016 89.62C54.32 89.3 54.472 88.884 54.472 88.372C54.472 87.86 54.32 87.444 54.016 87.124C53.712 86.804 53.316 86.644 52.828 86.644C52.34 86.644 51.944 86.804 51.64 87.124C51.336 87.444 51.184 87.86 51.184 88.372C51.184 88.884 51.336 89.3 51.64 89.62C51.944 89.94 52.34 90.1 52.828 90.1ZM59.7953 91.108C58.8113 91.108 58.0593 90.736 57.5393 89.992C57.0273 89.24 56.7713 88.164 56.7713 86.764C56.7713 85.34 57.0273 84.264 57.5393 83.536C58.0593 82.8 58.8113 82.432 59.7953 82.432C60.7873 82.432 61.5393 82.8 62.0513 83.536C62.5633 84.264 62.8193 85.336 62.8193 86.752C62.8193 88.16 62.5593 89.24 62.0393 89.992C61.5273 90.736 60.7793 91.108 59.7953 91.108ZM59.7953 90.076C60.4033 90.076 60.8553 89.808 61.1513 89.272C61.4473 88.736 61.5953 87.896 61.5953 86.752C61.5953 85.608 61.4473 84.776 61.1513 84.256C60.8633 83.728 60.4113 83.464 59.7953 83.464C59.1873 83.464 58.7353 83.728 58.4393 84.256C58.1433 84.784 57.9953 85.616 57.9953 86.752C57.9953 87.896 58.1433 88.736 58.4393 89.272C58.7353 89.808 59.1873 90.076 59.7953 90.076ZM53.368 122V120.284H49.564V119.36L53.584 113.54H54.604V119.24H55.84V120.284H54.604V122H53.368ZM53.368 119.24V115.484L50.8 119.24H53.368ZM59.7953 122.108C58.8113 122.108 58.0593 121.736 57.5393 120.992C57.0273 120.24 56.7713 119.164 56.7713 117.764C56.7713 116.34 57.0273 115.264 57.5393 114.536C58.0593 113.8 58.8113 113.432 59.7953 113.432C60.7873 113.432 61.5393 113.8 62.0513 114.536C62.5633 115.264 62.8193 116.336 62.8193 117.752C62.8193 119.16 62.5593 120.24 62.0393 120.992C61.5273 121.736 60.7793 122.108 59.7953 122.108ZM59.7953 121.076C60.4033 121.076 60.8553 120.808 61.1513 120.272C61.4473 119.736 61.5953 118.896 61.5953 117.752C61.5953 116.608 61.4473 115.776 61.1513 115.256C60.8633 114.728 60.4113 114.464 59.7953 114.464C59.1873 114.464 58.7353 114.728 58.4393 115.256C58.1433 115.784 57.9953 116.616 57.9953 117.752C57.9953 118.896 58.1433 119.736 58.4393 120.272C58.7353 120.808 59.1873 121.076 59.7953 121.076ZM50.02 153V152.076L52.84 149.052C53.232 148.628 53.512 148.244 53.68 147.9C53.856 147.556 53.944 147.208 53.944 146.856C53.944 145.944 53.408 145.488 52.336 145.488C51.52 145.488 50.788 145.796 50.14 146.412L49.696 145.464C50.016 145.152 50.424 144.904 50.92 144.72C51.416 144.528 51.932 144.432 52.468 144.432C53.34 144.432 54.008 144.632 54.472 145.032C54.944 145.432 55.18 146.004 55.18 146.748C55.18 147.252 55.056 147.744 54.808 148.224C54.568 148.704 54.188 149.216 53.668 149.76L51.58 151.956H55.516V153H50.02ZM59.7953 153.108C58.8113 153.108 58.0593 152.736 57.5393 151.992C57.0273 151.24 56.7713 150.164 56.7713 148.764C56.7713 147.34 57.0273 146.264 57.5393 145.536C58.0593 144.8 58.8113 144.432 59.7953 144.432C60.7873 144.432 61.5393 144.8 62.0513 145.536C62.5633 146.264 62.8193 147.336 62.8193 148.752C62.8193 150.16 62.5593 151.24 62.0393 151.992C61.5273 152.736 60.7793 153.108 59.7953 153.108ZM59.7953 152.076C60.4033 152.076 60.8553 151.808 61.1513 151.272C61.4473 150.736 61.5953 149.896 61.5953 148.752C61.5953 147.608 61.4473 146.776 61.1513 146.256C60.8633 145.728 60.4113 145.464 59.7953 145.464C59.1873 145.464 58.7353 145.728 58.4393 146.256C58.1433 146.784 57.9953 147.616 57.9953 148.752C57.9953 149.896 58.1433 150.736 58.4393 151.272C58.7353 151.808 59.1873 152.076 59.7953 152.076ZM52.6 184.108C51.616 184.108 50.864 183.736 50.344 182.992C49.832 182.24 49.576 181.164 49.576 179.764C49.576 178.34 49.832 177.264 50.344 176.536C50.864 175.8 51.616 175.432 52.6 175.432C53.592 175.432 54.344 175.8 54.856 176.536C55.368 177.264 55.624 178.336 55.624 179.752C55.624 181.16 55.364 182.24 54.844 182.992C54.332 183.736 53.584 184.108 52.6 184.108ZM52.6 183.076C53.208 183.076 53.66 182.808 53.956 182.272C54.252 181.736 54.4 180.896 54.4 179.752C54.4 178.608 54.252 177.776 53.956 177.256C53.668 176.728 53.216 176.464 52.6 176.464C51.992 176.464 51.54 176.728 51.244 177.256C50.948 177.784 50.8 178.616 50.8 179.752C50.8 180.896 50.948 181.736 51.244 182.272C51.54 182.808 51.992 183.076 52.6 183.076Z" fill="#8F94A4"/>
<path d="M44.4486 57.9086V43.8086H50.5686C52.1152 43.8086 53.3086 44.1819 54.1486 44.9286C54.9886 45.6619 55.4086 46.6952 55.4086 48.0286C55.4086 49.0819 55.1352 49.9552 54.5886 50.6486C54.0419 51.3286 53.2552 51.7886 52.2286 52.0286C52.9086 52.2419 53.4686 52.7552 53.9086 53.5686L56.2686 57.9086H53.4486L51.0086 53.4086C50.7686 52.9686 50.4819 52.6686 50.1486 52.5086C49.8286 52.3486 49.4152 52.2686 48.9086 52.2686H47.0086V57.9086H44.4486ZM47.0086 50.3686H50.1286C51.9952 50.3686 52.9286 49.6086 52.9286 48.0886C52.9286 46.5819 51.9952 45.8286 50.1286 45.8286H47.0086V50.3686ZM62.4856 58.1086C61.3789 58.1086 60.4256 57.9019 59.6256 57.4886C58.8256 57.0752 58.2056 56.4886 57.7656 55.7286C57.3389 54.9686 57.1256 54.0686 57.1256 53.0286C57.1256 52.0152 57.3323 51.1286 57.7456 50.3686C58.1723 49.6086 58.7523 49.0152 59.4856 48.5886C60.2323 48.1486 61.0789 47.9286 62.0256 47.9286C63.4123 47.9286 64.5056 48.3686 65.3056 49.2486C66.1189 50.1286 66.5256 51.3286 66.5256 52.8486V53.5886H59.5256C59.7123 55.3352 60.7123 56.2086 62.5256 56.2086C63.0723 56.2086 63.6189 56.1286 64.1656 55.9686C64.7123 55.7952 65.2123 55.5286 65.6656 55.1686L66.3656 56.8486C65.8989 57.2352 65.3123 57.5419 64.6056 57.7686C63.8989 57.9952 63.1923 58.1086 62.4856 58.1086ZM62.1256 49.6286C61.3923 49.6286 60.7989 49.8552 60.3456 50.3086C59.8923 50.7619 59.6189 51.3752 59.5256 52.1486H64.4456C64.3923 51.3352 64.1656 50.7152 63.7656 50.2886C63.3789 49.8486 62.8323 49.6286 62.1256 49.6286ZM68.5054 61.5086V48.1286H70.9454V49.6886C71.2254 49.1552 71.6454 48.7286 72.2054 48.4086C72.7788 48.0886 73.4254 47.9286 74.1454 47.9286C74.9988 47.9286 75.7454 48.1352 76.3854 48.5486C77.0388 48.9619 77.5454 49.5486 77.9054 50.3086C78.2654 51.0552 78.4454 51.9552 78.4454 53.0086C78.4454 54.0486 78.2654 54.9552 77.9054 55.7286C77.5454 56.4886 77.0454 57.0752 76.4054 57.4886C75.7654 57.9019 75.0121 58.1086 74.1454 58.1086C73.4521 58.1086 72.8254 57.9619 72.2654 57.6686C71.7188 57.3619 71.2988 56.9552 71.0054 56.4486V61.5086H68.5054ZM73.4454 56.2086C74.1921 56.2086 74.7921 55.9419 75.2454 55.4086C75.6988 54.8619 75.9254 54.0619 75.9254 53.0086C75.9254 51.9419 75.6988 51.1486 75.2454 50.6286C74.7921 50.0952 74.1921 49.8286 73.4454 49.8286C72.6988 49.8286 72.0988 50.0952 71.6454 50.6286C71.1921 51.1486 70.9654 51.9419 70.9654 53.0086C70.9654 54.0619 71.1921 54.8619 71.6454 55.4086C72.0988 55.9419 72.6988 56.2086 73.4454 56.2086ZM84.9576 58.1086C83.9443 58.1086 83.0643 57.9019 82.3176 57.4886C81.571 57.0752 80.991 56.4886 80.5776 55.7286C80.1643 54.9552 79.9576 54.0486 79.9576 53.0086C79.9576 51.9686 80.1643 51.0686 80.5776 50.3086C80.991 49.5486 81.571 48.9619 82.3176 48.5486C83.0643 48.1352 83.9443 47.9286 84.9576 47.9286C85.971 47.9286 86.851 48.1352 87.5976 48.5486C88.3443 48.9619 88.9243 49.5486 89.3376 50.3086C89.751 51.0686 89.9576 51.9686 89.9576 53.0086C89.9576 54.0486 89.751 54.9552 89.3376 55.7286C88.9243 56.4886 88.3443 57.0752 87.5976 57.4886C86.851 57.9019 85.971 58.1086 84.9576 58.1086ZM84.9576 56.2086C85.7043 56.2086 86.3043 55.9419 86.7576 55.4086C87.211 54.8619 87.4376 54.0619 87.4376 53.0086C87.4376 51.9419 87.211 51.1486 86.7576 50.6286C86.3043 50.0952 85.7043 49.8286 84.9576 49.8286C84.211 49.8286 83.611 50.0952 83.1576 50.6286C82.7043 51.1486 82.4776 51.9419 82.4776 53.0086C82.4776 54.0619 82.7043 54.8619 83.1576 55.4086C83.611 55.9419 84.211 56.2086 84.9576 56.2086ZM92.0211 57.9086V48.1286H94.4611V49.8486C94.9411 48.6886 95.9677 48.0486 97.5411 47.9286L98.3011 47.8686L98.4611 49.9886L97.0211 50.1286C95.3811 50.2886 94.5611 51.1286 94.5611 52.6486V57.9086H92.0211ZM104.9 58.1086C102.313 58.1086 101.02 56.8286 101.02 54.2686V50.0086H99.1395V48.1286H101.02V45.2086H103.52V48.1286H106.48V50.0086H103.52V54.1286C103.52 54.7686 103.66 55.2486 103.94 55.5686C104.22 55.8886 104.673 56.0486 105.3 56.0486C105.486 56.0486 105.68 56.0286 105.88 55.9886C106.08 55.9352 106.286 55.8819 106.5 55.8286L106.88 57.6686C106.64 57.8019 106.333 57.9086 105.96 57.9886C105.6 58.0686 105.246 58.1086 104.9 58.1086ZM107.935 46.0286V43.5886H110.735V46.0286H107.935ZM108.095 57.9086V48.1286H110.595V57.9086H108.095ZM113.193 57.9086V48.1286H115.633V49.6486C115.966 49.0886 116.413 48.6619 116.973 48.3686C117.546 48.0752 118.186 47.9286 118.893 47.9286C121.2 47.9286 122.353 49.2686 122.353 51.9486V57.9086H119.853V52.0686C119.853 51.3086 119.706 50.7552 119.413 50.4086C119.133 50.0619 118.693 49.8886 118.093 49.8886C117.36 49.8886 116.773 50.1219 116.333 50.5886C115.906 51.0419 115.693 51.6486 115.693 52.4086V57.9086H113.193ZM129.452 61.7086C128.545 61.7086 127.692 61.6019 126.892 61.3886C126.105 61.1886 125.412 60.8752 124.812 60.4486L125.532 58.7086C126.092 59.0819 126.692 59.3552 127.332 59.5286C127.972 59.7152 128.612 59.8086 129.252 59.8086C131.039 59.8086 131.932 58.9486 131.932 57.2286V55.8886C131.652 56.4352 131.219 56.8686 130.632 57.1886C130.059 57.5086 129.419 57.6686 128.712 57.6686C127.832 57.6686 127.065 57.4686 126.412 57.0686C125.759 56.6552 125.252 56.0819 124.892 55.3486C124.532 54.6152 124.352 53.7619 124.352 52.7886C124.352 51.8152 124.532 50.9686 124.892 50.2486C125.252 49.5152 125.759 48.9486 126.412 48.5486C127.065 48.1352 127.832 47.9286 128.712 47.9286C129.445 47.9286 130.099 48.0952 130.672 48.4286C131.245 48.7486 131.665 49.1819 131.932 49.7286V48.1286H134.372V56.9286C134.372 58.5152 133.952 59.7086 133.112 60.5086C132.272 61.3086 131.052 61.7086 129.452 61.7086ZM129.392 55.7686C130.165 55.7686 130.779 55.5019 131.232 54.9686C131.685 54.4352 131.912 53.7086 131.912 52.7886C131.912 51.8686 131.685 51.1486 131.232 50.6286C130.779 50.0952 130.165 49.8286 129.392 49.8286C128.619 49.8286 128.005 50.0952 127.552 50.6286C127.099 51.1486 126.872 51.8686 126.872 52.7886C126.872 53.7086 127.099 54.4352 127.552 54.9686C128.005 55.5019 128.619 55.7686 129.392 55.7686Z" fill="black"/>
<rect x="112" y="87" width="10" height="92" fill="#E74F24"/>
<rect x="261" y="112" width="10" height="67" fill="#E74F24"/>
<rect x="182" y="127" width="10" height="52" fill="#E74F24"/>
<rect x="336" y="118" width="10" height="61" fill="#E74F24"/>
<rect x="127" y="127" width="10" height="52" fill="#4169E1"/>
<rect x="276" y="87" width="10" height="92" fill="#4169E1"/>
<rect x="197" y="112" width="10" height="67" fill="#4169E1"/>
<rect x="351" y="102" width="10" height="77" fill="#4169E1"/>
<g filter="url(#filter1_d_1_60)">
<rect x="32" y="32" width="368" height="196" rx="15" fill="white"/>
</g>
<path d="M52.692 61V48.4H57.876C58.992 48.4 59.946 48.58 60.738 48.94C61.542 49.3 62.16 49.816 62.592 50.488C63.024 51.16 63.24 51.958 63.24 52.882C63.24 53.806 63.024 54.604 62.592 55.276C62.16 55.936 61.542 56.446 60.738 56.806C59.946 57.154 58.992 57.328 57.876 57.328H53.988L55.032 56.266V61H52.692ZM60.936 61L57.75 56.428H60.252L63.456 61H60.936ZM55.032 56.518L53.988 55.402H57.768C58.8 55.402 59.574 55.18 60.09 54.736C60.618 54.292 60.882 53.674 60.882 52.882C60.882 52.078 60.618 51.46 60.09 51.028C59.574 50.596 58.8 50.38 57.768 50.38H53.988L55.032 49.228V56.518ZM70.16 61.126C69.092 61.126 68.156 60.916 67.352 60.496C66.56 60.064 65.942 59.476 65.498 58.732C65.066 57.988 64.85 57.142 64.85 56.194C64.85 55.234 65.06 54.388 65.48 53.656C65.912 52.912 66.5 52.33 67.244 51.91C68 51.49 68.858 51.28 69.818 51.28C70.754 51.28 71.588 51.484 72.32 51.892C73.052 52.3 73.628 52.876 74.048 53.62C74.468 54.364 74.678 55.24 74.678 56.248C74.678 56.344 74.672 56.452 74.66 56.572C74.66 56.692 74.654 56.806 74.642 56.914H66.632V55.42H73.454L72.572 55.888C72.584 55.336 72.47 54.85 72.23 54.43C71.99 54.01 71.66 53.68 71.24 53.44C70.832 53.2 70.358 53.08 69.818 53.08C69.266 53.08 68.78 53.2 68.36 53.44C67.952 53.68 67.628 54.016 67.388 54.448C67.16 54.868 67.046 55.366 67.046 55.942V56.302C67.046 56.878 67.178 57.388 67.442 57.832C67.706 58.276 68.078 58.618 68.558 58.858C69.038 59.098 69.59 59.218 70.214 59.218C70.754 59.218 71.24 59.134 71.672 58.966C72.104 58.798 72.488 58.534 72.824 58.174L74.03 59.56C73.598 60.064 73.052 60.454 72.392 60.73C71.744 60.994 71 61.126 70.16 61.126ZM82.1673 61.126C81.3873 61.126 80.6733 60.946 80.0253 60.586C79.3893 60.226 78.8793 59.686 78.4953 58.966C78.1233 58.234 77.9373 57.31 77.9373 56.194C77.9373 55.066 78.1173 54.142 78.4773 53.422C78.8493 52.702 79.3533 52.168 79.9893 51.82C80.6253 51.46 81.3513 51.28 82.1673 51.28C83.1153 51.28 83.9493 51.484 84.6693 51.892C85.4013 52.3 85.9773 52.87 86.3973 53.602C86.8293 54.334 87.0453 55.198 87.0453 56.194C87.0453 57.19 86.8293 58.06 86.3973 58.804C85.9773 59.536 85.4013 60.106 84.6693 60.514C83.9493 60.922 83.1153 61.126 82.1673 61.126ZM76.8393 64.492V51.388H78.9813V53.656L78.9093 56.212L79.0893 58.768V64.492H76.8393ZM81.9153 59.2C82.4553 59.2 82.9353 59.08 83.3553 58.84C83.7873 58.6 84.1293 58.252 84.3813 57.796C84.6333 57.34 84.7593 56.806 84.7593 56.194C84.7593 55.57 84.6333 55.036 84.3813 54.592C84.1293 54.136 83.7873 53.788 83.3553 53.548C82.9353 53.308 82.4553 53.188 81.9153 53.188C81.3753 53.188 80.8893 53.308 80.4573 53.548C80.0253 53.788 79.6833 54.136 79.4313 54.592C79.1793 55.036 79.0533 55.57 79.0533 56.194C79.0533 56.806 79.1793 57.34 79.4313 57.796C79.6833 58.252 80.0253 58.6 80.4573 58.84C80.8893 59.08 81.3753 59.2 81.9153 59.2ZM93.4991 61.126C92.5151 61.126 91.6391 60.916 90.8711 60.496C90.1031 60.064 89.4971 59.476 89.0531 58.732C88.6091 57.988 88.3871 57.142 88.3871 56.194C88.3871 55.234 88.6091 54.388 89.0531 53.656C89.4971 52.912 90.1031 52.33 90.8711 51.91C91.6391 51.49 92.5151 51.28 93.4991 51.28C94.4951 51.28 95.3771 51.49 96.1451 51.91C96.9251 52.33 97.5311 52.906 97.9631 53.638C98.4071 54.37 98.6291 55.222 98.6291 56.194C98.6291 57.142 98.4071 57.988 97.9631 58.732C97.5311 59.476 96.9251 60.064 96.1451 60.496C95.3771 60.916 94.4951 61.126 93.4991 61.126ZM93.4991 59.2C94.0511 59.2 94.5431 59.08 94.9751 58.84C95.4071 58.6 95.7431 58.252 95.9831 57.796C96.2351 57.34 96.3611 56.806 96.3611 56.194C96.3611 55.57 96.2351 55.036 95.9831 54.592C95.7431 54.136 95.4071 53.788 94.9751 53.548C94.5431 53.308 94.0571 53.188 93.5171 53.188C92.9651 53.188 92.4731 53.308 92.0411 53.548C91.6211 53.788 91.2851 54.136 91.0331 54.592C90.7811 55.036 90.6551 55.57 90.6551 56.194C90.6551 56.806 90.7811 57.34 91.0331 57.796C91.2851 58.252 91.6211 58.6 92.0411 58.84C92.4731 59.08 92.9591 59.2 93.4991 59.2ZM100.781 61V51.388H102.923V54.034L102.671 53.26C102.959 52.612 103.409 52.12 104.021 51.784C104.645 51.448 105.419 51.28 106.343 51.28V53.422C106.247 53.398 106.157 53.386 106.073 53.386C105.989 53.374 105.905 53.368 105.821 53.368C104.969 53.368 104.291 53.62 103.787 54.124C103.283 54.616 103.031 55.354 103.031 56.338V61H100.781ZM112.221 61.126C111.165 61.126 110.349 60.856 109.773 60.316C109.197 59.764 108.909 58.954 108.909 57.886V49.264H111.159V57.832C111.159 58.288 111.273 58.642 111.501 58.894C111.741 59.146 112.071 59.272 112.491 59.272C112.995 59.272 113.415 59.14 113.751 58.876L114.381 60.478C114.117 60.694 113.793 60.856 113.409 60.964C113.025 61.072 112.629 61.126 112.221 61.126ZM107.325 53.26V51.46H113.733V53.26H107.325ZM116.232 61V51.388H118.482V61H116.232ZM117.366 49.804C116.946 49.804 116.598 49.672 116.322 49.408C116.058 49.144 115.926 48.826 115.926 48.454C115.926 48.07 116.058 47.752 116.322 47.5C116.598 47.236 116.946 47.104 117.366 47.104C117.786 47.104 118.128 47.23 118.392 47.482C118.668 47.722 118.806 48.028 118.806 48.4C118.806 48.796 118.674 49.132 118.41 49.408C118.146 49.672 117.798 49.804 117.366 49.804ZM126.889 51.28C127.657 51.28 128.341 51.43 128.941 51.73C129.553 52.03 130.033 52.492 130.381 53.116C130.729 53.728 130.903 54.52 130.903 55.492V61H128.653V55.78C128.653 54.928 128.449 54.292 128.041 53.872C127.645 53.452 127.087 53.242 126.367 53.242C125.839 53.242 125.371 53.35 124.963 53.566C124.555 53.782 124.237 54.106 124.009 54.538C123.793 54.958 123.685 55.492 123.685 56.14V61H121.435V51.388H123.577V53.98L123.199 53.188C123.535 52.576 124.021 52.108 124.657 51.784C125.305 51.448 126.049 51.28 126.889 51.28ZM138.131 64.618C137.243 64.618 136.373 64.498 135.521 64.258C134.681 64.03 133.991 63.694 133.451 63.25L134.459 61.558C134.879 61.906 135.407 62.182 136.043 62.386C136.691 62.602 137.345 62.71 138.005 62.71C139.061 62.71 139.835 62.464 140.327 61.972C140.819 61.492 141.065 60.766 141.065 59.794V58.084L141.245 55.906L141.173 53.728V51.388H143.315V59.542C143.315 61.282 142.871 62.56 141.983 63.376C141.095 64.204 139.811 64.618 138.131 64.618ZM137.843 60.568C136.931 60.568 136.103 60.376 135.359 59.992C134.627 59.596 134.045 59.05 133.613 58.354C133.193 57.658 132.983 56.842 132.983 55.906C132.983 54.982 133.193 54.172 133.613 53.476C134.045 52.78 134.627 52.24 135.359 51.856C136.103 51.472 136.931 51.28 137.843 51.28C138.659 51.28 139.391 51.442 140.039 51.766C140.687 52.09 141.203 52.594 141.587 53.278C141.983 53.962 142.181 54.838 142.181 55.906C142.181 56.974 141.983 57.856 141.587 58.552C141.203 59.236 140.687 59.746 140.039 60.082C139.391 60.406 138.659 60.568 137.843 60.568ZM138.185 58.66C138.749 58.66 139.253 58.546 139.697 58.318C140.141 58.078 140.483 57.754 140.723 57.346C140.975 56.926 141.101 56.446 141.101 55.906C141.101 55.366 140.975 54.892 140.723 54.484C140.483 54.064 140.141 53.746 139.697 53.53C139.253 53.302 138.749 53.188 138.185 53.188C137.621 53.188 137.111 53.302 136.655 53.53C136.211 53.746 135.863 54.064 135.611 54.484C135.371 54.892 135.251 55.366 135.251 55.906C135.251 56.446 135.371 56.926 135.611 57.346C135.863 57.754 136.211 58.078 136.655 58.318C137.111 58.546 137.621 58.66 138.185 58.66Z" fill="black"/>
<path d="M93.404 212V210.956H95.324V204.98L93.824 205.916L93.32 204.992L95.684 203.54H96.56V210.956H98.36V212H93.404ZM100.479 212V203.54H104.007C104.887 203.54 105.567 203.736 106.047 204.128C106.535 204.512 106.779 205.052 106.779 205.748C106.779 206.204 106.659 206.596 106.419 206.924C106.179 207.252 105.851 207.492 105.435 207.644C105.923 207.772 106.303 208.008 106.575 208.352C106.847 208.696 106.983 209.132 106.983 209.66C106.983 210.412 106.731 210.992 106.227 211.4C105.731 211.8 105.039 212 104.151 212H100.479ZM101.679 207.236H103.815C104.983 207.236 105.567 206.78 105.567 205.868C105.567 204.956 104.983 204.5 103.815 204.5H101.679V207.236ZM101.679 211.04H104.007C105.183 211.04 105.771 210.564 105.771 209.612C105.771 208.668 105.183 208.196 104.007 208.196H101.679V211.04ZM110.699 212.108C110.291 212.108 109.927 212.028 109.607 211.868C109.287 211.708 109.031 211.492 108.839 211.22C108.655 210.948 108.563 210.64 108.563 210.296C108.563 209.864 108.671 209.524 108.887 209.276C109.111 209.028 109.475 208.848 109.979 208.736C110.491 208.624 111.179 208.568 112.043 208.568H112.451V208.256C112.451 207.8 112.355 207.472 112.163 207.272C111.971 207.072 111.655 206.972 111.215 206.972C110.879 206.972 110.543 207.024 110.207 207.128C109.871 207.224 109.527 207.38 109.175 207.596L108.803 206.744C109.107 206.528 109.487 206.356 109.943 206.228C110.399 206.1 110.835 206.036 111.251 206.036C112.051 206.036 112.643 206.228 113.027 206.612C113.411 206.988 113.603 207.58 113.603 208.388V212H112.463V211.028C112.319 211.364 112.095 211.628 111.791 211.82C111.487 212.012 111.123 212.108 110.699 212.108ZM110.939 211.244C111.371 211.244 111.731 211.092 112.019 210.788C112.307 210.484 112.451 210.1 112.451 209.636V209.312H112.055C111.471 209.312 111.011 209.34 110.675 209.396C110.347 209.452 110.111 209.548 109.967 209.684C109.831 209.812 109.763 209.992 109.763 210.224C109.763 210.528 109.867 210.776 110.075 210.968C110.283 211.152 110.571 211.244 110.939 211.244ZM117.804 212.108C117.292 212.108 116.84 211.988 116.448 211.748C116.064 211.5 115.764 211.148 115.548 210.692C115.332 210.236 115.224 209.696 115.224 209.072C115.224 208.448 115.332 207.912 115.548 207.464C115.764 207.008 116.064 206.656 116.448 206.408C116.832 206.16 117.284 206.036 117.804 206.036C118.244 206.036 118.636 206.132 118.98 206.324C119.324 206.516 119.58 206.776 119.748 207.104V203.54H120.96V212H119.772V210.98C119.604 211.332 119.344 211.608 118.992 211.808C118.648 212.008 118.252 212.108 117.804 212.108ZM118.116 211.172C118.612 211.172 119.012 210.992 119.316 210.632C119.62 210.272 119.772 209.752 119.772 209.072C119.772 208.392 119.62 207.876 119.316 207.524C119.012 207.164 118.612 206.984 118.116 206.984C117.612 206.984 117.208 207.164 116.904 207.524C116.6 207.876 116.448 208.392 116.448 209.072C116.448 209.752 116.6 210.272 116.904 210.632C117.208 210.992 117.612 211.172 118.116 211.172ZM161.106 212V211.076L163.926 208.052C164.318 207.628 164.598 207.244 164.766 206.9C164.942 206.556 165.03 206.208 165.03 205.856C165.03 204.944 164.494 204.488 163.422 204.488C162.606 204.488 161.874 204.796 161.226 205.412L160.782 204.464C161.102 204.152 161.51 203.904 162.006 203.72C162.502 203.528 163.018 203.432 163.554 203.432C164.426 203.432 165.094 203.632 165.558 204.032C166.03 204.432 166.266 205.004 166.266 205.748C166.266 206.252 166.142 206.744 165.894 207.224C165.654 207.704 165.274 208.216 164.754 208.76L162.666 210.956H166.602V212H161.106ZM168.565 212V203.54H172.093C172.973 203.54 173.653 203.736 174.133 204.128C174.621 204.512 174.865 205.052 174.865 205.748C174.865 206.204 174.745 206.596 174.505 206.924C174.265 207.252 173.937 207.492 173.521 207.644C174.009 207.772 174.389 208.008 174.661 208.352C174.933 208.696 175.069 209.132 175.069 209.66C175.069 210.412 174.817 210.992 174.313 211.4C173.817 211.8 173.125 212 172.237 212H168.565ZM169.765 207.236H171.901C173.069 207.236 173.653 206.78 173.653 205.868C173.653 204.956 173.069 204.5 171.901 204.5H169.765V207.236ZM169.765 211.04H172.093C173.269 211.04 173.857 210.564 173.857 209.612C173.857 208.668 173.269 208.196 172.093 208.196H169.765V211.04ZM178.785 212.108C178.377 212.108 178.013 212.028 177.693 211.868C177.373 211.708 177.117 211.492 176.925 211.22C176.741 210.948 176.649 210.64 176.649 210.296C176.649 209.864 176.757 209.524 176.973 209.276C177.197 209.028 177.561 208.848 178.065 208.736C178.577 208.624 179.265 208.568 180.129 208.568H180.537V208.256C180.537 207.8 180.441 207.472 180.249 207.272C180.057 207.072 179.741 206.972 179.301 206.972C178.965 206.972 178.629 207.024 178.293 207.128C177.957 207.224 177.613 207.38 177.261 207.596L176.889 206.744C177.193 206.528 177.573 206.356 178.029 206.228C178.485 206.1 178.921 206.036 179.337 206.036C180.137 206.036 180.729 206.228 181.113 206.612C181.497 206.988 181.689 207.58 181.689 208.388V212H180.549V211.028C180.405 211.364 180.181 211.628 179.877 211.82C179.573 212.012 179.209 212.108 178.785 212.108ZM179.025 211.244C179.457 211.244 179.817 211.092 180.105 210.788C180.393 210.484 180.537 210.1 180.537 209.636V209.312H180.141C179.557 209.312 179.097 209.34 178.761 209.396C178.433 209.452 178.197 209.548 178.053 209.684C177.917 209.812 177.849 209.992 177.849 210.224C177.849 210.528 177.953 210.776 178.161 210.968C178.369 211.152 178.657 211.244 179.025 211.244ZM185.89 212.108C185.378 212.108 184.926 211.988 184.534 211.748C184.15 211.5 183.85 211.148 183.634 210.692C183.418 210.236 183.31 209.696 183.31 209.072C183.31 208.448 183.418 207.912 183.634 207.464C183.85 207.008 184.15 206.656 184.534 206.408C184.918 206.16 185.37 206.036 185.89 206.036C186.33 206.036 186.722 206.132 187.066 206.324C187.41 206.516 187.666 206.776 187.834 207.104V203.54H189.046V212H187.858V210.98C187.69 211.332 187.43 211.608 187.078 211.808C186.734 212.008 186.338 212.108 185.89 212.108ZM186.202 211.172C186.698 211.172 187.098 210.992 187.402 210.632C187.706 210.272 187.858 209.752 187.858 209.072C187.858 208.392 187.706 207.876 187.402 207.524C187.098 207.164 186.698 206.984 186.202 206.984C185.698 206.984 185.294 207.164 184.99 207.524C184.686 207.876 184.534 208.392 184.534 209.072C184.534 209.752 184.686 210.272 184.99 210.632C185.294 210.992 185.698 211.172 186.202 211.172ZM193.1 212.108C192.62 212.108 192.172 212.048 191.756 211.928C191.34 211.8 190.992 211.624 190.712 211.4L191.06 210.584C191.356 210.792 191.68 210.952 192.032 211.064C192.392 211.176 192.752 211.232 193.112 211.232C193.536 211.232 193.856 211.156 194.072 211.004C194.288 210.852 194.396 210.648 194.396 210.392C194.396 210.184 194.324 210.024 194.18 209.912C194.036 209.792 193.82 209.7 193.532 209.636L192.392 209.408C191.384 209.2 190.88 208.68 190.88 207.848C190.88 207.296 191.1 206.856 191.54 206.528C191.98 206.2 192.556 206.036 193.268 206.036C193.676 206.036 194.064 206.096 194.432 206.216C194.808 206.336 195.12 206.516 195.368 206.756L195.02 207.572C194.78 207.364 194.504 207.204 194.192 207.092C193.88 206.98 193.572 206.924 193.268 206.924C192.852 206.924 192.536 207.004 192.32 207.164C192.104 207.316 191.996 207.524 191.996 207.788C191.996 208.188 192.26 208.444 192.788 208.556L193.928 208.784C194.448 208.888 194.84 209.064 195.104 209.312C195.376 209.56 195.512 209.896 195.512 210.32C195.512 210.88 195.292 211.32 194.852 211.64C194.412 211.952 193.828 212.108 193.1 212.108ZM223.943 212.108C223.375 212.108 222.835 212.024 222.323 211.856C221.811 211.68 221.383 211.436 221.039 211.124L221.471 210.164C221.847 210.468 222.235 210.692 222.635 210.836C223.035 210.98 223.459 211.052 223.907 211.052C224.483 211.052 224.919 210.928 225.215 210.68C225.519 210.432 225.671 210.076 225.671 209.612C225.671 209.148 225.519 208.804 225.215 208.58C224.919 208.356 224.487 208.244 223.919 208.244H222.611V207.2H223.799C224.303 207.2 224.699 207.072 224.987 206.816C225.283 206.56 225.431 206.208 225.431 205.76C225.431 205.352 225.295 205.04 225.023 204.824C224.751 204.6 224.363 204.488 223.859 204.488C223.003 204.488 222.255 204.796 221.615 205.412L221.183 204.464C221.511 204.136 221.919 203.884 222.407 203.708C222.903 203.524 223.419 203.432 223.955 203.432C224.803 203.432 225.463 203.628 225.935 204.02C226.407 204.404 226.643 204.94 226.643 205.628C226.643 206.092 226.523 206.5 226.283 206.852C226.051 207.204 225.727 207.46 225.311 207.62C225.815 207.748 226.203 207.996 226.475 208.364C226.747 208.724 226.883 209.168 226.883 209.696C226.883 210.44 226.619 211.028 226.091 211.46C225.571 211.892 224.855 212.108 223.943 212.108ZM228.954 212V203.54H232.482C233.362 203.54 234.042 203.736 234.522 204.128C235.01 204.512 235.254 205.052 235.254 205.748C235.254 206.204 235.134 206.596 234.894 206.924C234.654 207.252 234.326 207.492 233.91 207.644C234.398 207.772 234.778 208.008 235.05 208.352C235.322 208.696 235.458 209.132 235.458 209.66C235.458 210.412 235.206 210.992 234.702 211.4C234.206 211.8 233.514 212 232.626 212H228.954ZM230.154 207.236H232.29C233.458 207.236 234.042 206.78 234.042 205.868C234.042 204.956 233.458 204.5 232.29 204.5H230.154V207.236ZM230.154 211.04H232.482C233.658 211.04 234.246 210.564 234.246 209.612C234.246 208.668 233.658 208.196 232.482 208.196H230.154V211.04ZM239.174 212.108C238.766 212.108 238.402 212.028 238.082 211.868C237.762 211.708 237.506 211.492 237.314 211.22C237.13 210.948 237.038 210.64 237.038 210.296C237.038 209.864 237.146 209.524 237.362 209.276C237.586 209.028 237.95 208.848 238.454 208.736C238.966 208.624 239.654 208.568 240.518 208.568H240.926V208.256C240.926 207.8 240.83 207.472 240.638 207.272C240.446 207.072 240.13 206.972 239.69 206.972C239.354 206.972 239.018 207.024 238.682 207.128C238.346 207.224 238.002 207.38 237.65 207.596L237.278 206.744C237.582 206.528 237.962 206.356 238.418 206.228C238.874 206.1 239.31 206.036 239.726 206.036C240.526 206.036 241.118 206.228 241.502 206.612C241.886 206.988 242.078 207.58 242.078 208.388V212H240.938V211.028C240.794 211.364 240.57 211.628 240.266 211.82C239.962 212.012 239.598 212.108 239.174 212.108ZM239.414 211.244C239.846 211.244 240.206 211.092 240.494 210.788C240.782 210.484 240.926 210.1 240.926 209.636V209.312H240.53C239.946 209.312 239.486 209.34 239.15 209.396C238.822 209.452 238.586 209.548 238.442 209.684C238.306 209.812 238.238 209.992 238.238 210.224C238.238 210.528 238.342 210.776 238.55 210.968C238.758 211.152 239.046 211.244 239.414 211.244ZM246.279 212.108C245.767 212.108 245.315 211.988 244.923 211.748C244.539 211.5 244.239 211.148 244.023 210.692C243.807 210.236 243.699 209.696 243.699 209.072C243.699 208.448 243.807 207.912 244.023 207.464C244.239 207.008 244.539 206.656 244.923 206.408C245.307 206.16 245.759 206.036 246.279 206.036C246.719 206.036 247.111 206.132 247.455 206.324C247.799 206.516 248.055 206.776 248.223 207.104V203.54H249.435V212H248.247V210.98C248.079 211.332 247.819 211.608 247.467 211.808C247.123 212.008 246.727 212.108 246.279 212.108ZM246.591 211.172C247.087 211.172 247.487 210.992 247.791 210.632C248.095 210.272 248.247 209.752 248.247 209.072C248.247 208.392 248.095 207.876 247.791 207.524C247.487 207.164 247.087 206.984 246.591 206.984C246.087 206.984 245.683 207.164 245.379 207.524C245.075 207.876 244.923 208.392 244.923 209.072C244.923 209.752 245.075 210.272 245.379 210.632C245.683 210.992 246.087 211.172 246.591 211.172ZM253.489 212.108C253.009 212.108 252.561 212.048 252.145 211.928C251.729 211.8 251.381 211.624 251.101 211.4L251.449 210.584C251.745 210.792 252.069 210.952 252.421 211.064C252.781 211.176 253.141 211.232 253.501 211.232C253.925 211.232 254.245 211.156 254.461 211.004C254.677 210.852 254.785 210.648 254.785 210.392C254.785 210.184 254.713 210.024 254.569 209.912C254.425 209.792 254.209 209.7 253.921 209.636L252.781 209.408C251.773 209.2 251.269 208.68 251.269 207.848C251.269 207.296 251.489 206.856 251.929 206.528C252.369 206.2 252.945 206.036 253.657 206.036C254.065 206.036 254.453 206.096 254.821 206.216C255.197 206.336 255.509 206.516 255.757 206.756L255.409 207.572C255.169 207.364 254.893 207.204 254.581 207.092C254.269 206.98 253.961 206.924 253.657 206.924C253.241 206.924 252.925 207.004 252.709 207.164C252.493 207.316 252.385 207.524 252.385 207.788C252.385 208.188 252.649 208.444 253.177 208.556L254.317 208.784C254.837 208.888 255.229 209.064 255.493 209.312C255.765 209.56 255.901 209.896 255.901 210.32C255.901 210.88 255.681 211.32 255.241 211.64C254.801 211.952 254.217 212.108 253.489 212.108ZM288.684 212V210.284H284.88V209.36L288.9 203.54H289.92V209.24H291.156V210.284H289.92V212H288.684ZM288.684 209.24V205.484L286.116 209.24H288.684ZM292.796 212V203.54H296.324C297.204 203.54 297.884 203.736 298.364 204.128C298.852 204.512 299.096 205.052 299.096 205.748C299.096 206.204 298.976 206.596 298.736 206.924C298.496 207.252 298.168 207.492 297.752 207.644C298.24 207.772 298.62 208.008 298.892 208.352C299.164 208.696 299.3 209.132 299.3 209.66C299.3 210.412 299.048 210.992 298.544 211.4C298.048 211.8 297.356 212 296.468 212H292.796ZM293.996 207.236H296.132C297.3 207.236 297.884 206.78 297.884 205.868C297.884 204.956 297.3 204.5 296.132 204.5H293.996V207.236ZM293.996 211.04H296.324C297.5 211.04 298.088 210.564 298.088 209.612C298.088 208.668 297.5 208.196 296.324 208.196H293.996V211.04ZM303.015 212.108C302.607 212.108 302.243 212.028 301.923 211.868C301.603 211.708 301.347 211.492 301.155 211.22C300.971 210.948 300.879 210.64 300.879 210.296C300.879 209.864 300.987 209.524 301.203 209.276C301.427 209.028 301.791 208.848 302.295 208.736C302.807 208.624 303.495 208.568 304.359 208.568H304.767V208.256C304.767 207.8 304.671 207.472 304.479 207.272C304.287 207.072 303.971 206.972 303.531 206.972C303.195 206.972 302.859 207.024 302.523 207.128C302.187 207.224 301.843 207.38 301.491 207.596L301.119 206.744C301.423 206.528 301.803 206.356 302.259 206.228C302.715 206.1 303.151 206.036 303.567 206.036C304.367 206.036 304.959 206.228 305.343 206.612C305.727 206.988 305.919 207.58 305.919 208.388V212H304.779V211.028C304.635 211.364 304.411 211.628 304.107 211.82C303.803 212.012 303.439 212.108 303.015 212.108ZM303.255 211.244C303.687 211.244 304.047 211.092 304.335 210.788C304.623 210.484 304.767 210.1 304.767 209.636V209.312H304.371C303.787 209.312 303.327 209.34 302.991 209.396C302.663 209.452 302.427 209.548 302.283 209.684C302.147 209.812 302.079 209.992 302.079 210.224C302.079 210.528 302.183 210.776 302.391 210.968C302.599 211.152 302.887 211.244 303.255 211.244ZM310.121 212.108C309.609 212.108 309.157 211.988 308.765 211.748C308.381 211.5 308.081 211.148 307.865 210.692C307.649 210.236 307.541 209.696 307.541 209.072C307.541 208.448 307.649 207.912 307.865 207.464C308.081 207.008 308.381 206.656 308.765 206.408C309.149 206.16 309.601 206.036 310.121 206.036C310.561 206.036 310.953 206.132 311.297 206.324C311.641 206.516 311.897 206.776 312.065 207.104V203.54H313.277V212H312.089V210.98C311.921 211.332 311.661 211.608 311.309 211.808C310.965 212.008 310.569 212.108 310.121 212.108ZM310.433 211.172C310.929 211.172 311.329 210.992 311.633 210.632C311.937 210.272 312.089 209.752 312.089 209.072C312.089 208.392 311.937 207.876 311.633 207.524C311.329 207.164 310.929 206.984 310.433 206.984C309.929 206.984 309.525 207.164 309.221 207.524C308.917 207.876 308.765 208.392 308.765 209.072C308.765 209.752 308.917 210.272 309.221 210.632C309.525 210.992 309.929 211.172 310.433 211.172ZM317.331 212.108C316.851 212.108 316.403 212.048 315.987 211.928C315.571 211.8 315.223 211.624 314.943 211.4L315.291 210.584C315.587 210.792 315.911 210.952 316.263 211.064C316.623 211.176 316.983 211.232 317.343 211.232C317.767 211.232 318.087 211.156 318.303 211.004C318.519 210.852 318.627 210.648 318.627 210.392C318.627 210.184 318.555 210.024 318.411 209.912C318.267 209.792 318.051 209.7 317.763 209.636L316.623 209.408C315.615 209.2 315.111 208.68 315.111 207.848C315.111 207.296 315.331 206.856 315.771 206.528C316.211 206.2 316.787 206.036 317.499 206.036C317.907 206.036 318.295 206.096 318.663 206.216C319.039 206.336 319.351 206.516 319.599 206.756L319.251 207.572C319.011 207.364 318.735 207.204 318.423 207.092C318.111 206.98 317.803 206.924 317.499 206.924C317.083 206.924 316.767 207.004 316.551 207.164C316.335 207.316 316.227 207.524 316.227 207.788C316.227 208.188 316.491 208.444 317.019 208.556L318.159 208.784C318.679 208.888 319.071 209.064 319.335 209.312C319.607 209.56 319.743 209.896 319.743 210.32C319.743 210.88 319.523 211.32 319.083 211.64C318.643 211.952 318.059 212.108 317.331 212.108ZM351.89 212.108C351.346 212.108 350.818 212.024 350.306 211.856C349.802 211.68 349.382 211.436 349.046 211.124L349.466 210.164C350.202 210.756 351.002 211.052 351.866 211.052C352.418 211.052 352.85 210.904 353.162 210.608C353.474 210.304 353.63 209.908 353.63 209.42C353.63 208.916 353.482 208.504 353.186 208.184C352.89 207.864 352.478 207.704 351.95 207.704C351.206 207.704 350.61 208.012 350.162 208.628H349.298V203.54H354.338V204.584H350.51V207.26C350.958 206.868 351.526 206.672 352.214 206.672C352.75 206.672 353.214 206.784 353.606 207.008C353.998 207.232 354.302 207.548 354.518 207.956C354.734 208.356 354.842 208.824 354.842 209.36C354.842 209.904 354.722 210.384 354.482 210.8C354.242 211.208 353.902 211.528 353.462 211.76C353.022 211.992 352.498 212.108 351.89 212.108ZM356.637 212V203.54H360.165C361.045 203.54 361.725 203.736 362.205 204.128C362.693 204.512 362.937 205.052 362.937 205.748C362.937 206.204 362.817 206.596 362.577 206.924C362.337 207.252 362.009 207.492 361.593 207.644C362.081 207.772 362.461 208.008 362.733 208.352C363.005 208.696 363.141 209.132 363.141 209.66C363.141 210.412 362.889 210.992 362.385 211.4C361.889 211.8 361.197 212 360.309 212H356.637ZM357.837 207.236H359.973C361.141 207.236 361.725 206.78 361.725 205.868C361.725 204.956 361.141 204.5 359.973 204.5H357.837V207.236ZM357.837 211.04H360.165C361.341 211.04 361.929 210.564 361.929 209.612C361.929 208.668 361.341 208.196 360.165 208.196H357.837V211.04ZM366.857 212.108C366.449 212.108 366.085 212.028 365.765 211.868C365.445 211.708 365.189 211.492 364.997 211.22C364.813 210.948 364.721 210.64 364.721 210.296C364.721 209.864 364.829 209.524 365.045 209.276C365.269 209.028 365.633 208.848 366.137 208.736C366.649 208.624 367.337 208.568 368.201 208.568H368.609V208.256C368.609 207.8 368.513 207.472 368.321 207.272C368.129 207.072 367.813 206.972 367.373 206.972C367.037 206.972 366.701 207.024 366.365 207.128C366.029 207.224 365.685 207.38 365.333 207.596L364.961 206.744C365.265 206.528 365.645 206.356 366.101 206.228C366.557 206.1 366.993 206.036 367.409 206.036C368.209 206.036 368.801 206.228 369.185 206.612C369.569 206.988 369.761 207.58 369.761 208.388V212H368.621V211.028C368.477 211.364 368.253 211.628 367.949 211.82C367.645 212.012 367.281 212.108 366.857 212.108ZM367.097 211.244C367.529 211.244 367.889 211.092 368.177 210.788C368.465 210.484 368.609 210.1 368.609 209.636V209.312H368.213C367.629 209.312 367.169 209.34 366.833 209.396C366.505 209.452 366.269 209.548 366.125 209.684C365.989 209.812 365.921 209.992 365.921 210.224C365.921 210.528 366.025 210.776 366.233 210.968C366.441 211.152 366.729 211.244 367.097 211.244ZM373.962 212.108C373.45 212.108 372.998 211.988 372.606 211.748C372.222 211.5 371.922 211.148 371.706 210.692C371.49 210.236 371.382 209.696 371.382 209.072C371.382 208.448 371.49 207.912 371.706 207.464C371.922 207.008 372.222 206.656 372.606 206.408C372.99 206.16 373.442 206.036 373.962 206.036C374.402 206.036 374.794 206.132 375.138 206.324C375.482 206.516 375.738 206.776 375.906 207.104V203.54H377.118V212H375.93V210.98C375.762 211.332 375.502 211.608 375.15 211.808C374.806 212.008 374.41 212.108 373.962 212.108ZM374.274 211.172C374.77 211.172 375.17 210.992 375.474 210.632C375.778 210.272 375.93 209.752 375.93 209.072C375.93 208.392 375.778 207.876 375.474 207.524C375.17 207.164 374.77 206.984 374.274 206.984C373.77 206.984 373.366 207.164 373.062 207.524C372.758 207.876 372.606 208.392 372.606 209.072C372.606 209.752 372.758 210.272 373.062 210.632C373.366 210.992 373.77 211.172 374.274 211.172ZM381.172 212.108C380.692 212.108 380.244 212.048 379.828 211.928C379.412 211.8 379.064 211.624 378.784 211.4L379.132 210.584C379.428 210.792 379.752 210.952 380.104 211.064C380.464 211.176 380.824 211.232 381.184 211.232C381.608 211.232 381.928 211.156 382.144 211.004C382.36 210.852 382.468 210.648 382.468 210.392C382.468 210.184 382.396 210.024 382.252 209.912C382.108 209.792 381.892 209.7 381.604 209.636L380.464 209.408C379.456 209.2 378.952 208.68 378.952 207.848C378.952 207.296 379.172 206.856 379.612 206.528C380.052 206.2 380.628 206.036 381.34 206.036C381.748 206.036 382.136 206.096 382.504 206.216C382.88 206.336 383.192 206.516 383.44 206.756L383.092 207.572C382.852 207.364 382.576 207.204 382.264 207.092C381.952 206.98 381.644 206.924 381.34 206.924C380.924 206.924 380.608 207.004 380.392 207.164C380.176 207.316 380.068 207.524 380.068 207.788C380.068 208.188 380.332 208.444 380.86 208.556L382 208.784C382.52 208.888 382.912 209.064 383.176 209.312C383.448 209.56 383.584 209.896 383.584 210.32C383.584 210.88 383.364 211.32 382.924 211.64C382.484 211.952 381.9 212.108 381.172 212.108Z" fill="#8F94A4"/>
<path d="M94 162.444C94 159.99 95.9898 158 98.4444 158H120.667C123.121 158 125.111 159.99 125.111 162.444V185.556H94V162.444Z" fill="#E74F24"/>
<path d="M157 126.222C157 123.768 158.99 121.778 161.444 121.778H183.667C186.121 121.778 188.111 123.768 188.111 126.222V186.667H157V126.222Z" fill="#F29920"/>
<path d="M220 142.222C220 139.768 221.99 137.778 224.444 137.778H246.667C249.121 137.778 251.111 139.768 251.111 142.222V185.778H220V142.222Z" fill="#E74F24"/>
<path d="M283 101.333C283 98.8786 284.99 96.8888 287.444 96.8888H309.667C312.121 96.8888 314.111 98.8786 314.111 101.333V185.778H283V101.333Z" fill="#F29920"/>
<path d="M346 142.444C346 139.99 347.99 138 350.444 138H372.667C375.121 138 377.111 139.99 377.111 142.444V186H346V142.444Z" fill="#E74F24"/>
<path d="M51.9867 94.28V84.2533H52.8613V94.28H51.9867ZM52.3173 93.1067C51.7342 93.1067 51.176 93.0249 50.6427 92.8613C50.1093 92.6907 49.6862 92.4738 49.3733 92.2107L49.8533 91.1333C50.152 91.368 50.5218 91.5636 50.9627 91.72C51.4036 91.8764 51.8551 91.9547 52.3173 91.9547C52.7084 91.9547 53.0249 91.912 53.2667 91.8267C53.5084 91.7413 53.6862 91.6276 53.8 91.4853C53.9138 91.336 53.9707 91.1689 53.9707 90.984C53.9707 90.7564 53.8889 90.5751 53.7253 90.44C53.5618 90.2978 53.3484 90.1876 53.0853 90.1093C52.8293 90.024 52.5413 89.9458 52.2213 89.8747C51.9084 89.8036 51.592 89.7218 51.272 89.6293C50.9591 89.5298 50.6711 89.4053 50.408 89.256C50.152 89.0996 49.9422 88.8933 49.7787 88.6373C49.6151 88.3813 49.5333 88.0542 49.5333 87.656C49.5333 87.2507 49.64 86.8809 49.8533 86.5467C50.0738 86.2053 50.4044 85.9351 50.8453 85.736C51.2933 85.5298 51.8587 85.4267 52.5413 85.4267C52.9893 85.4267 53.4338 85.4836 53.8747 85.5973C54.3156 85.7111 54.6996 85.8747 55.0267 86.088L54.5893 87.1653C54.2551 86.9662 53.9102 86.8204 53.5547 86.728C53.1991 86.6284 52.8578 86.5787 52.5307 86.5787C52.1467 86.5787 51.8338 86.6249 51.592 86.7173C51.3573 86.8098 51.1831 86.9307 51.0693 87.08C50.9627 87.2293 50.9093 87.4 50.9093 87.592C50.9093 87.8196 50.9876 88.0044 51.144 88.1467C51.3076 88.2818 51.5173 88.3884 51.7733 88.4667C52.0364 88.5449 52.328 88.6231 52.648 88.7013C52.968 88.7724 53.2844 88.8542 53.5973 88.9467C53.9173 89.0391 54.2053 89.16 54.4613 89.3093C54.7244 89.4587 54.9342 89.6613 55.0907 89.9173C55.2542 90.1733 55.336 90.4969 55.336 90.888C55.336 91.2862 55.2258 91.656 55.0053 91.9973C54.792 92.3316 54.4613 92.6018 54.0133 92.808C53.5653 93.0071 53 93.1067 52.3173 93.1067ZM62.3576 93.1067C61.682 93.1067 61.1025 92.9644 60.6189 92.68C60.1354 92.3884 59.7656 91.9689 59.5096 91.4213C59.2536 90.8738 59.1256 90.1982 59.1256 89.3947C59.1256 88.5413 59.2785 87.8196 59.5842 87.2293C59.8971 86.6391 60.3274 86.1911 60.8749 85.8853C61.4296 85.5796 62.066 85.4267 62.7843 85.4267C63.1611 85.4267 63.5203 85.4658 63.8616 85.544C64.21 85.6222 64.5051 85.7431 64.7469 85.9067L64.2349 86.952C64.0287 86.8169 63.8047 86.7244 63.5629 86.6747C63.3282 86.6178 63.0794 86.5893 62.8162 86.5893C62.1122 86.5893 61.554 86.8062 61.1416 87.24C60.7291 87.6738 60.5229 88.3138 60.5229 89.16C60.5229 89.2951 60.5265 89.4551 60.5336 89.64C60.5407 89.8178 60.5656 89.9991 60.6083 90.184L60.1816 89.7147C60.3096 89.4231 60.4838 89.1813 60.7042 88.9893C60.9318 88.7902 61.1985 88.6409 61.5043 88.5413C61.8171 88.4418 62.1549 88.392 62.5176 88.392C63.0082 88.392 63.4456 88.488 63.8296 88.68C64.2136 88.8649 64.5194 89.1316 64.7469 89.48C64.9745 89.8213 65.0883 90.2231 65.0883 90.6853C65.0883 91.176 64.9674 91.6027 64.7256 91.9653C64.4838 92.328 64.1567 92.6089 63.7442 92.808C63.3318 93.0071 62.8696 93.1067 62.3576 93.1067ZM62.2829 92.0187C62.5674 92.0187 62.8198 91.9689 63.0402 91.8693C63.2607 91.7627 63.4314 91.6133 63.5522 91.4213C63.6802 91.2293 63.7442 91.0053 63.7442 90.7493C63.7442 90.3582 63.6091 90.0489 63.3389 89.8213C63.0687 89.5938 62.706 89.48 62.2509 89.48C61.9522 89.48 61.6891 89.5369 61.4616 89.6507C61.2411 89.7573 61.0634 89.9067 60.9283 90.0987C60.8002 90.2907 60.7362 90.5111 60.7362 90.76C60.7362 90.9876 60.7967 91.1973 60.9176 91.3893C61.0385 91.5813 61.2127 91.7342 61.4402 91.848C61.6749 91.9618 61.9558 92.0187 62.2829 92.0187ZM68.9278 93.1067C68.3375 93.1067 67.8042 92.9573 67.3277 92.6587C66.8584 92.36 66.4886 91.9262 66.2184 91.3573C65.9482 90.7813 65.8131 90.0844 65.8131 89.2667C65.8131 88.4489 65.9482 87.7556 66.2184 87.1867C66.4886 86.6107 66.8584 86.1733 67.3277 85.8747C67.8042 85.576 68.3375 85.4267 68.9278 85.4267C69.5251 85.4267 70.0584 85.576 70.5278 85.8747C70.9971 86.1733 71.3669 86.6107 71.6371 87.1867C71.9144 87.7556 72.0531 88.4489 72.0531 89.2667C72.0531 90.0844 71.9144 90.7813 71.6371 91.3573C71.3669 91.9262 70.9971 92.36 70.5278 92.6587C70.0584 92.9573 69.5251 93.1067 68.9278 93.1067ZM68.9278 91.9013C69.2762 91.9013 69.5784 91.8089 69.8344 91.624C70.0904 91.432 70.2895 91.1404 70.4317 90.7493C70.5811 90.3582 70.6557 89.864 70.6557 89.2667C70.6557 88.6622 70.5811 88.168 70.4317 87.784C70.2895 87.3929 70.0904 87.1049 69.8344 86.92C69.5784 86.728 69.2762 86.632 68.9278 86.632C68.5935 86.632 68.2949 86.728 68.0317 86.92C67.7757 87.1049 67.5731 87.3929 67.4237 87.784C67.2815 88.168 67.2104 88.6622 67.2104 89.2667C67.2104 89.864 67.2815 90.3582 67.4237 90.7493C67.5731 91.1404 67.7757 91.432 68.0317 91.624C68.2949 91.8089 68.5935 91.9013 68.9278 91.9013Z" fill="#8F94A4"/>
<path d="M51.9867 123.613V113.586H52.8613V123.613H51.9867ZM52.3173 122.44C51.7342 122.44 51.176 122.358 50.6427 122.194C50.1093 122.024 49.6862 121.807 49.3733 121.544L49.8533 120.466C50.152 120.701 50.5218 120.897 50.9627 121.053C51.4036 121.21 51.8551 121.288 52.3173 121.288C52.7084 121.288 53.0249 121.245 53.2667 121.16C53.5084 121.074 53.6862 120.961 53.8 120.818C53.9138 120.669 53.9707 120.502 53.9707 120.317C53.9707 120.09 53.8889 119.908 53.7253 119.773C53.5618 119.631 53.3484 119.521 53.0853 119.442C52.8293 119.357 52.5413 119.279 52.2213 119.208C51.9084 119.137 51.592 119.055 51.272 118.962C50.9591 118.863 50.6711 118.738 50.408 118.589C50.152 118.433 49.9422 118.226 49.7787 117.97C49.6151 117.714 49.5333 117.387 49.5333 116.989C49.5333 116.584 49.64 116.214 49.8533 115.88C50.0738 115.538 50.4044 115.268 50.8453 115.069C51.2933 114.863 51.8587 114.76 52.5413 114.76C52.9893 114.76 53.4338 114.817 53.8747 114.93C54.3156 115.044 54.6996 115.208 55.0267 115.421L54.5893 116.498C54.2551 116.299 53.9102 116.154 53.5547 116.061C53.1991 115.962 52.8578 115.912 52.5307 115.912C52.1467 115.912 51.8338 115.958 51.592 116.05C51.3573 116.143 51.1831 116.264 51.0693 116.413C50.9627 116.562 50.9093 116.733 50.9093 116.925C50.9093 117.153 50.9876 117.338 51.144 117.48C51.3076 117.615 51.5173 117.722 51.7733 117.8C52.0364 117.878 52.328 117.956 52.648 118.034C52.968 118.106 53.2844 118.187 53.5973 118.28C53.9173 118.372 54.2053 118.493 54.4613 118.642C54.7244 118.792 54.9342 118.994 55.0907 119.25C55.2542 119.506 55.336 119.83 55.336 120.221C55.336 120.619 55.2258 120.989 55.0053 121.33C54.792 121.665 54.4613 121.935 54.0133 122.141C53.5653 122.34 53 122.44 52.3173 122.44ZM59.0189 120.637V119.677L62.6989 114.866H64.1816L60.5549 119.677L59.8616 119.464H65.7816V120.637H59.0189ZM63.1149 122.333V120.637L63.1576 119.464V117.96H64.4589V122.333H63.1149ZM69.4798 122.44C68.8896 122.44 68.3563 122.29 67.8798 121.992C67.4105 121.693 67.0407 121.259 66.7705 120.69C66.5003 120.114 66.3652 119.418 66.3652 118.6C66.3652 117.782 66.5003 117.089 66.7705 116.52C67.0407 115.944 67.4105 115.506 67.8798 115.208C68.3563 114.909 68.8896 114.76 69.4798 114.76C70.0772 114.76 70.6105 114.909 71.0798 115.208C71.5492 115.506 71.9189 115.944 72.1892 116.52C72.4665 117.089 72.6052 117.782 72.6052 118.6C72.6052 119.418 72.4665 120.114 72.1892 120.69C71.9189 121.259 71.5492 121.693 71.0798 121.992C70.6105 122.29 70.0772 122.44 69.4798 122.44ZM69.4798 121.234C69.8283 121.234 70.1305 121.142 70.3865 120.957C70.6425 120.765 70.8416 120.474 70.9838 120.082C71.1332 119.691 71.2078 119.197 71.2078 118.6C71.2078 117.995 71.1332 117.501 70.9838 117.117C70.8416 116.726 70.6425 116.438 70.3865 116.253C70.1305 116.061 69.8283 115.965 69.4798 115.965C69.1456 115.965 68.8469 116.061 68.5838 116.253C68.3278 116.438 68.1252 116.726 67.9758 117.117C67.8336 117.501 67.7625 117.995 67.7625 118.6C67.7625 119.197 67.8336 119.691 67.9758 120.082C68.1252 120.474 68.3278 120.765 68.5838 120.957C68.8469 121.142 69.1456 121.234 69.4798 121.234Z" fill="#8F94A4"/>
<path d="M51.9867 152.058V142.031H52.8613V152.058H51.9867ZM52.3173 150.884C51.7342 150.884 51.176 150.803 50.6427 150.639C50.1093 150.468 49.6862 150.252 49.3733 149.988L49.8533 148.911C50.152 149.146 50.5218 149.341 50.9627 149.498C51.4036 149.654 51.8551 149.732 52.3173 149.732C52.7084 149.732 53.0249 149.69 53.2667 149.604C53.5084 149.519 53.6862 149.405 53.8 149.263C53.9138 149.114 53.9707 148.947 53.9707 148.762C53.9707 148.534 53.8889 148.353 53.7253 148.218C53.5618 148.076 53.3484 147.965 53.0853 147.887C52.8293 147.802 52.5413 147.724 52.2213 147.652C51.9084 147.581 51.592 147.5 51.272 147.407C50.9591 147.308 50.6711 147.183 50.408 147.034C50.152 146.877 49.9422 146.671 49.7787 146.415C49.6151 146.159 49.5333 145.832 49.5333 145.434C49.5333 145.028 49.64 144.659 49.8533 144.324C50.0738 143.983 50.4044 143.713 50.8453 143.514C51.2933 143.308 51.8587 143.204 52.5413 143.204C52.9893 143.204 53.4338 143.261 53.8747 143.375C54.3156 143.489 54.6996 143.652 55.0267 143.866L54.5893 144.943C54.2551 144.744 53.9102 144.598 53.5547 144.506C53.1991 144.406 52.8578 144.356 52.5307 144.356C52.1467 144.356 51.8338 144.403 51.592 144.495C51.3573 144.588 51.1831 144.708 51.0693 144.858C50.9627 145.007 50.9093 145.178 50.9093 145.37C50.9093 145.597 50.9876 145.782 51.144 145.924C51.3076 146.06 51.5173 146.166 51.7733 146.244C52.0364 146.323 52.328 146.401 52.648 146.479C52.968 146.55 53.2844 146.632 53.5973 146.724C53.9173 146.817 54.2053 146.938 54.4613 147.087C54.7244 147.236 54.9342 147.439 55.0907 147.695C55.2542 147.951 55.336 148.275 55.336 148.666C55.336 149.064 55.2258 149.434 55.0053 149.775C54.792 150.109 54.4613 150.38 54.0133 150.586C53.5653 150.785 53 150.884 52.3173 150.884ZM59.0296 150.778V149.85L61.9949 147.034C62.2438 146.799 62.4287 146.593 62.5496 146.415C62.6705 146.237 62.7487 146.074 62.7843 145.924C62.8269 145.768 62.8482 145.622 62.8482 145.487C62.8482 145.146 62.7309 144.883 62.4962 144.698C62.2616 144.506 61.9167 144.41 61.4616 144.41C61.0989 144.41 60.7682 144.474 60.4696 144.602C60.178 144.73 59.9256 144.925 59.7123 145.188L58.7416 144.442C59.0331 144.051 59.4243 143.748 59.9149 143.535C60.4127 143.315 60.9674 143.204 61.5789 143.204C62.1194 143.204 62.5887 143.293 62.9869 143.471C63.3922 143.642 63.7016 143.887 63.9149 144.207C64.1354 144.527 64.2456 144.908 64.2456 145.348C64.2456 145.59 64.2136 145.832 64.1496 146.074C64.0856 146.308 63.9647 146.557 63.7869 146.82C63.6091 147.084 63.3496 147.379 63.0082 147.706L60.4589 150.127L60.1709 149.604H64.5336V150.778H59.0296ZM68.4486 150.884C67.8584 150.884 67.325 150.735 66.8486 150.436C66.3792 150.138 66.0095 149.704 65.7392 149.135C65.469 148.559 65.3339 147.862 65.3339 147.044C65.3339 146.227 65.469 145.533 65.7392 144.964C66.0095 144.388 66.3792 143.951 66.8486 143.652C67.325 143.354 67.8584 143.204 68.4486 143.204C69.0459 143.204 69.5792 143.354 70.0486 143.652C70.5179 143.951 70.8877 144.388 71.1579 144.964C71.4352 145.533 71.5739 146.227 71.5739 147.044C71.5739 147.862 71.4352 148.559 71.1579 149.135C70.8877 149.704 70.5179 150.138 70.0486 150.436C69.5792 150.735 69.0459 150.884 68.4486 150.884ZM68.4486 149.679C68.797 149.679 69.0992 149.587 69.3552 149.402C69.6112 149.21 69.8104 148.918 69.9526 148.527C70.1019 148.136 70.1766 147.642 70.1766 147.044C70.1766 146.44 70.1019 145.946 69.9526 145.562C69.8104 145.171 69.6112 144.883 69.3552 144.698C69.0992 144.506 68.797 144.41 68.4486 144.41C68.1144 144.41 67.8157 144.506 67.5526 144.698C67.2966 144.883 67.0939 145.171 66.9446 145.562C66.8024 145.946 66.7312 146.44 66.7312 147.044C66.7312 147.642 66.8024 148.136 66.9446 148.527C67.0939 148.918 67.2966 149.21 67.5526 149.402C67.8157 149.587 68.1144 149.679 68.4486 149.679Z" fill="#8F94A4"/>
<path d="M54.6532 181.391V171.364H55.5279V181.391H54.6532ZM54.9839 180.218C54.4008 180.218 53.8426 180.136 53.3092 179.972C52.7759 179.802 52.3528 179.585 52.0399 179.322L52.5199 178.244C52.8186 178.479 53.1883 178.675 53.6292 178.831C54.0701 178.987 54.5217 179.066 54.9839 179.066C55.375 179.066 55.6915 179.023 55.9332 178.938C56.175 178.852 56.3528 178.739 56.4666 178.596C56.5803 178.447 56.6372 178.28 56.6372 178.095C56.6372 177.867 56.5555 177.686 56.3919 177.551C56.2283 177.409 56.015 177.299 55.7519 177.22C55.4959 177.135 55.2079 177.057 54.8879 176.986C54.575 176.915 54.2586 176.833 53.9386 176.74C53.6257 176.641 53.3377 176.516 53.0746 176.367C52.8186 176.211 52.6088 176.004 52.4452 175.748C52.2817 175.492 52.1999 175.165 52.1999 174.767C52.1999 174.362 52.3066 173.992 52.5199 173.658C52.7403 173.316 53.071 173.046 53.5119 172.847C53.9599 172.641 54.5252 172.538 55.2079 172.538C55.6559 172.538 56.1003 172.595 56.5412 172.708C56.9821 172.822 57.3661 172.986 57.6932 173.199L57.2559 174.276C56.9217 174.077 56.5768 173.931 56.2212 173.839C55.8657 173.739 55.5243 173.69 55.1972 173.69C54.8132 173.69 54.5003 173.736 54.2586 173.828C54.0239 173.921 53.8497 174.042 53.7359 174.191C53.6292 174.34 53.5759 174.511 53.5759 174.703C53.5759 174.931 53.6541 175.115 53.8106 175.258C53.9741 175.393 54.1839 175.499 54.4399 175.578C54.703 175.656 54.9946 175.734 55.3146 175.812C55.6346 175.883 55.951 175.965 56.2639 176.058C56.5839 176.15 56.8719 176.271 57.1279 176.42C57.391 176.57 57.6008 176.772 57.7572 177.028C57.9208 177.284 58.0026 177.608 58.0026 177.999C58.0026 178.397 57.8923 178.767 57.6719 179.108C57.4586 179.443 57.1279 179.713 56.6799 179.919C56.2319 180.118 55.6666 180.218 54.9839 180.218ZM64.9068 180.218C64.3166 180.218 63.7833 180.068 63.3068 179.77C62.8375 179.471 62.4677 179.037 62.1975 178.468C61.9273 177.892 61.7921 177.195 61.7921 176.378C61.7921 175.56 61.9273 174.867 62.1975 174.298C62.4677 173.722 62.8375 173.284 63.3068 172.986C63.7833 172.687 64.3166 172.538 64.9068 172.538C65.5041 172.538 66.0375 172.687 66.5068 172.986C66.9761 173.284 67.3459 173.722 67.6161 174.298C67.8935 174.867 68.0321 175.56 68.0321 176.378C68.0321 177.195 67.8935 177.892 67.6161 178.468C67.3459 179.037 66.9761 179.471 66.5068 179.77C66.0375 180.068 65.5041 180.218 64.9068 180.218ZM64.9068 179.012C65.2553 179.012 65.5575 178.92 65.8135 178.735C66.0695 178.543 66.2686 178.251 66.4108 177.86C66.5601 177.469 66.6348 176.975 66.6348 176.378C66.6348 175.773 66.5601 175.279 66.4108 174.895C66.2686 174.504 66.0695 174.216 65.8135 174.031C65.5575 173.839 65.2553 173.743 64.9068 173.743C64.5726 173.743 64.2739 173.839 64.0108 174.031C63.7548 174.216 63.5521 174.504 63.4028 174.895C63.2606 175.279 63.1895 175.773 63.1895 176.378C63.1895 176.975 63.2606 177.469 63.4028 177.86C63.5521 178.251 63.7548 178.543 64.0108 178.735C64.2739 178.92 64.5726 179.012 64.9068 179.012Z" fill="#8F94A4"/>
<defs>
<filter id="filter0_d_1_60" x="0" y="0" width="430" height="254" filterUnits="userSpaceOnUse" color-interpolation-filters="sRGB">
<feFlood flood-opacity="0" result="BackgroundImageFix"/>
<feColorMatrix in="SourceAlpha" type="matrix" values="0 0 0 0 0 0 0 0 0 0 0 0 0 0 0 0 0 0 127 0" result="hardAlpha"/>
<feOffset/>
<feGaussianBlur stdDeviation="15"/>
<feComposite in2="hardAlpha" operator="out"/>
<feColorMatrix type="matrix" values="0 0 0 0 0 0 0 0 0 0 0 0 0 0 0 0 0 0 0.07 0"/>
<feBlend mode="normal" in2="BackgroundImageFix" result="effect1_dropShadow_1_60"/>
<feBlend mode="normal" in="SourceGraphic" in2="effect1_dropShadow_1_60" result="shape"/>
</filter>
<filter id="filter1_d_1_60" x="16.8309" y="19.258" width="398.338" height="226.338" filterUnits="userSpaceOnUse" color-interpolation-filters="sRGB">
<feFlood flood-opacity="0" result="BackgroundImageFix"/>
<feColorMatrix in="SourceAlpha" type="matrix" values="0 0 0 0 0 0 0 0 0 0 0 0 0 0 0 0 0 0 127 0" result="hardAlpha"/>
<feOffset dy="2.42705"/>
<feGaussianBlur stdDeviation="7.58454"/>
<feComposite in2="hardAlpha" operator="out"/>
<feColorMatrix type="matrix" values="0 0 0 0 0.905882 0 0 0 0 0.309804 0 0 0 0 0.141176 0 0 0 0.1 0"/>
<feBlend mode="normal" in2="BackgroundImageFix" result="effect1_dropShadow_1_60"/>
<feBlend mode="normal" in="SourceGraphic" in2="effect1_dropShadow_1_60" result="shape"/>
</filter>
</defs>
</svg>
