<svg width="430" height="254" viewBox="0 0 430 254" fill="none" xmlns="http://www.w3.org/2000/svg">
<g filter="url(#filter0_d_1_105)">
<rect x="30" y="30" width="370" height="194" rx="7.17143" fill="white"/>
</g>
<g filter="url(#filter1_d_1_105)">
<rect x="33" y="30" width="370" height="196" rx="15" fill="white"/>
</g>
<path d="M60.9867 94.28V84.2533H61.8613V94.28H60.9867ZM61.3173 93.1067C60.7342 93.1067 60.176 93.0249 59.6427 92.8613C59.1093 92.6907 58.6862 92.4738 58.3733 92.2107L58.8533 91.1333C59.152 91.368 59.5218 91.5636 59.9627 91.72C60.4036 91.8764 60.8551 91.9547 61.3173 91.9547C61.7084 91.9547 62.0249 91.912 62.2667 91.8267C62.5084 91.7413 62.6862 91.6276 62.8 91.4853C62.9138 91.336 62.9707 91.1689 62.9707 90.984C62.9707 90.7564 62.8889 90.5751 62.7253 90.44C62.5618 90.2978 62.3484 90.1876 62.0853 90.1093C61.8293 90.024 61.5413 89.9458 61.2213 89.8747C60.9084 89.8036 60.592 89.7218 60.272 89.6293C59.9591 89.5298 59.6711 89.4053 59.408 89.256C59.152 89.0996 58.9422 88.8933 58.7787 88.6373C58.6151 88.3813 58.5333 88.0542 58.5333 87.656C58.5333 87.2507 58.64 86.8809 58.8533 86.5467C59.0738 86.2053 59.4044 85.9351 59.8453 85.736C60.2933 85.5298 60.8587 85.4267 61.5413 85.4267C61.9893 85.4267 62.4338 85.4836 62.8747 85.5973C63.3156 85.7111 63.6996 85.8747 64.0267 86.088L63.5893 87.1653C63.2551 86.9662 62.9102 86.8204 62.5547 86.728C62.1991 86.6284 61.8578 86.5787 61.5307 86.5787C61.1467 86.5787 60.8338 86.6249 60.592 86.7173C60.3573 86.8098 60.1831 86.9307 60.0693 87.08C59.9627 87.2293 59.9093 87.4 59.9093 87.592C59.9093 87.8196 59.9876 88.0044 60.144 88.1467C60.3076 88.2818 60.5173 88.3884 60.7733 88.4667C61.0364 88.5449 61.328 88.6231 61.648 88.7013C61.968 88.7724 62.2844 88.8542 62.5973 88.9467C62.9173 89.0391 63.2053 89.16 63.4613 89.3093C63.7244 89.4587 63.9342 89.6613 64.0907 89.9173C64.2542 90.1733 64.336 90.4969 64.336 90.888C64.336 91.2862 64.2258 91.656 64.0053 91.9973C63.792 92.3316 63.4613 92.6018 63.0133 92.808C62.5653 93.0071 62 93.1067 61.3173 93.1067ZM71.3576 93.1067C70.682 93.1067 70.1025 92.9644 69.6189 92.68C69.1354 92.3884 68.7656 91.9689 68.5096 91.4213C68.2536 90.8738 68.1256 90.1982 68.1256 89.3947C68.1256 88.5413 68.2785 87.8196 68.5842 87.2293C68.8971 86.6391 69.3274 86.1911 69.8749 85.8853C70.4296 85.5796 71.066 85.4267 71.7843 85.4267C72.1611 85.4267 72.5203 85.4658 72.8616 85.544C73.21 85.6222 73.5051 85.7431 73.7469 85.9067L73.2349 86.952C73.0287 86.8169 72.8047 86.7244 72.5629 86.6747C72.3282 86.6178 72.0794 86.5893 71.8162 86.5893C71.1122 86.5893 70.554 86.8062 70.1416 87.24C69.7291 87.6738 69.5229 88.3138 69.5229 89.16C69.5229 89.2951 69.5265 89.4551 69.5336 89.64C69.5407 89.8178 69.5656 89.9991 69.6083 90.184L69.1816 89.7147C69.3096 89.4231 69.4838 89.1813 69.7042 88.9893C69.9318 88.7902 70.1985 88.6409 70.5043 88.5413C70.8171 88.4418 71.1549 88.392 71.5176 88.392C72.0082 88.392 72.4456 88.488 72.8296 88.68C73.2136 88.8649 73.5194 89.1316 73.7469 89.48C73.9745 89.8213 74.0883 90.2231 74.0883 90.6853C74.0883 91.176 73.9674 91.6027 73.7256 91.9653C73.4838 92.328 73.1567 92.6089 72.7442 92.808C72.3318 93.0071 71.8696 93.1067 71.3576 93.1067ZM71.2829 92.0187C71.5674 92.0187 71.8198 91.9689 72.0402 91.8693C72.2607 91.7627 72.4314 91.6133 72.5522 91.4213C72.6802 91.2293 72.7442 91.0053 72.7442 90.7493C72.7442 90.3582 72.6091 90.0489 72.3389 89.8213C72.0687 89.5938 71.706 89.48 71.2509 89.48C70.9522 89.48 70.6891 89.5369 70.4616 89.6507C70.2411 89.7573 70.0634 89.9067 69.9283 90.0987C69.8002 90.2907 69.7362 90.5111 69.7362 90.76C69.7362 90.9876 69.7967 91.1973 69.9176 91.3893C70.0385 91.5813 70.2127 91.7342 70.4402 91.848C70.6749 91.9618 70.9558 92.0187 71.2829 92.0187ZM77.9278 93.1067C77.3375 93.1067 76.8042 92.9573 76.3277 92.6587C75.8584 92.36 75.4886 91.9262 75.2184 91.3573C74.9482 90.7813 74.8131 90.0844 74.8131 89.2667C74.8131 88.4489 74.9482 87.7556 75.2184 87.1867C75.4886 86.6107 75.8584 86.1733 76.3277 85.8747C76.8042 85.576 77.3375 85.4267 77.9278 85.4267C78.5251 85.4267 79.0584 85.576 79.5278 85.8747C79.9971 86.1733 80.3669 86.6107 80.6371 87.1867C80.9144 87.7556 81.0531 88.4489 81.0531 89.2667C81.0531 90.0844 80.9144 90.7813 80.6371 91.3573C80.3669 91.9262 79.9971 92.36 79.5278 92.6587C79.0584 92.9573 78.5251 93.1067 77.9278 93.1067ZM77.9278 91.9013C78.2762 91.9013 78.5784 91.8089 78.8344 91.624C79.0904 91.432 79.2895 91.1404 79.4317 90.7493C79.5811 90.3582 79.6557 89.864 79.6557 89.2667C79.6557 88.6622 79.5811 88.168 79.4317 87.784C79.2895 87.3929 79.0904 87.1049 78.8344 86.92C78.5784 86.728 78.2762 86.632 77.9278 86.632C77.5935 86.632 77.2949 86.728 77.0317 86.92C76.7757 87.1049 76.5731 87.3929 76.4237 87.784C76.2815 88.168 76.2104 88.6622 76.2104 89.2667C76.2104 89.864 76.2815 90.3582 76.4237 90.7493C76.5731 91.1404 76.7757 91.432 77.0317 91.624C77.2949 91.8089 77.5935 91.9013 77.9278 91.9013Z" fill="#8F94A4"/>
<path d="M60.9867 123.613V113.586H61.8613V123.613H60.9867ZM61.3173 122.44C60.7342 122.44 60.176 122.358 59.6427 122.194C59.1093 122.024 58.6862 121.807 58.3733 121.544L58.8533 120.466C59.152 120.701 59.5218 120.897 59.9627 121.053C60.4036 121.21 60.8551 121.288 61.3173 121.288C61.7084 121.288 62.0249 121.245 62.2667 121.16C62.5084 121.074 62.6862 120.961 62.8 120.818C62.9138 120.669 62.9707 120.502 62.9707 120.317C62.9707 120.09 62.8889 119.908 62.7253 119.773C62.5618 119.631 62.3484 119.521 62.0853 119.442C61.8293 119.357 61.5413 119.279 61.2213 119.208C60.9084 119.137 60.592 119.055 60.272 118.962C59.9591 118.863 59.6711 118.738 59.408 118.589C59.152 118.433 58.9422 118.226 58.7787 117.97C58.6151 117.714 58.5333 117.387 58.5333 116.989C58.5333 116.584 58.64 116.214 58.8533 115.88C59.0738 115.538 59.4044 115.268 59.8453 115.069C60.2933 114.863 60.8587 114.76 61.5413 114.76C61.9893 114.76 62.4338 114.817 62.8747 114.93C63.3156 115.044 63.6996 115.208 64.0267 115.421L63.5893 116.498C63.2551 116.299 62.9102 116.154 62.5547 116.061C62.1991 115.962 61.8578 115.912 61.5307 115.912C61.1467 115.912 60.8338 115.958 60.592 116.05C60.3573 116.143 60.1831 116.264 60.0693 116.413C59.9627 116.562 59.9093 116.733 59.9093 116.925C59.9093 117.153 59.9876 117.338 60.144 117.48C60.3076 117.615 60.5173 117.722 60.7733 117.8C61.0364 117.878 61.328 117.956 61.648 118.034C61.968 118.106 62.2844 118.187 62.5973 118.28C62.9173 118.372 63.2053 118.493 63.4613 118.642C63.7244 118.792 63.9342 118.994 64.0907 119.25C64.2542 119.506 64.336 119.83 64.336 120.221C64.336 120.619 64.2258 120.989 64.0053 121.33C63.792 121.665 63.4613 121.935 63.0133 122.141C62.5653 122.34 62 122.44 61.3173 122.44ZM68.0189 120.637V119.677L71.6989 114.866H73.1816L69.5549 119.677L68.8616 119.464H74.7816V120.637H68.0189ZM72.1149 122.333V120.637L72.1576 119.464V117.96H73.4589V122.333H72.1149ZM78.4798 122.44C77.8896 122.44 77.3563 122.29 76.8798 121.992C76.4105 121.693 76.0407 121.259 75.7705 120.69C75.5003 120.114 75.3652 119.418 75.3652 118.6C75.3652 117.782 75.5003 117.089 75.7705 116.52C76.0407 115.944 76.4105 115.506 76.8798 115.208C77.3563 114.909 77.8896 114.76 78.4798 114.76C79.0772 114.76 79.6105 114.909 80.0798 115.208C80.5492 115.506 80.9189 115.944 81.1892 116.52C81.4665 117.089 81.6052 117.782 81.6052 118.6C81.6052 119.418 81.4665 120.114 81.1892 120.69C80.9189 121.259 80.5492 121.693 80.0798 121.992C79.6105 122.29 79.0772 122.44 78.4798 122.44ZM78.4798 121.234C78.8283 121.234 79.1305 121.142 79.3865 120.957C79.6425 120.765 79.8416 120.474 79.9838 120.082C80.1332 119.691 80.2078 119.197 80.2078 118.6C80.2078 117.995 80.1332 117.501 79.9838 117.117C79.8416 116.726 79.6425 116.438 79.3865 116.253C79.1305 116.061 78.8283 115.965 78.4798 115.965C78.1456 115.965 77.8469 116.061 77.5838 116.253C77.3278 116.438 77.1252 116.726 76.9758 117.117C76.8336 117.501 76.7625 117.995 76.7625 118.6C76.7625 119.197 76.8336 119.691 76.9758 120.082C77.1252 120.474 77.3278 120.765 77.5838 120.957C77.8469 121.142 78.1456 121.234 78.4798 121.234Z" fill="#8F94A4"/>
<path d="M60.9867 152.058V142.031H61.8613V152.058H60.9867ZM61.3173 150.884C60.7342 150.884 60.176 150.803 59.6427 150.639C59.1093 150.468 58.6862 150.252 58.3733 149.988L58.8533 148.911C59.152 149.146 59.5218 149.341 59.9627 149.498C60.4036 149.654 60.8551 149.732 61.3173 149.732C61.7084 149.732 62.0249 149.69 62.2667 149.604C62.5084 149.519 62.6862 149.405 62.8 149.263C62.9138 149.114 62.9707 148.947 62.9707 148.762C62.9707 148.534 62.8889 148.353 62.7253 148.218C62.5618 148.076 62.3484 147.965 62.0853 147.887C61.8293 147.802 61.5413 147.724 61.2213 147.652C60.9084 147.581 60.592 147.5 60.272 147.407C59.9591 147.308 59.6711 147.183 59.408 147.034C59.152 146.877 58.9422 146.671 58.7787 146.415C58.6151 146.159 58.5333 145.832 58.5333 145.434C58.5333 145.028 58.64 144.659 58.8533 144.324C59.0738 143.983 59.4044 143.713 59.8453 143.514C60.2933 143.308 60.8587 143.204 61.5413 143.204C61.9893 143.204 62.4338 143.261 62.8747 143.375C63.3156 143.489 63.6996 143.652 64.0267 143.866L63.5893 144.943C63.2551 144.744 62.9102 144.598 62.5547 144.506C62.1991 144.406 61.8578 144.356 61.5307 144.356C61.1467 144.356 60.8338 144.403 60.592 144.495C60.3573 144.588 60.1831 144.708 60.0693 144.858C59.9627 145.007 59.9093 145.178 59.9093 145.37C59.9093 145.597 59.9876 145.782 60.144 145.924C60.3076 146.06 60.5173 146.166 60.7733 146.244C61.0364 146.323 61.328 146.401 61.648 146.479C61.968 146.55 62.2844 146.632 62.5973 146.724C62.9173 146.817 63.2053 146.938 63.4613 147.087C63.7244 147.236 63.9342 147.439 64.0907 147.695C64.2542 147.951 64.336 148.275 64.336 148.666C64.336 149.064 64.2258 149.434 64.0053 149.775C63.792 150.109 63.4613 150.38 63.0133 150.586C62.5653 150.785 62 150.884 61.3173 150.884ZM68.0296 150.778V149.85L70.9949 147.034C71.2438 146.799 71.4287 146.593 71.5496 146.415C71.6705 146.237 71.7487 146.074 71.7843 145.924C71.8269 145.768 71.8482 145.622 71.8482 145.487C71.8482 145.146 71.7309 144.883 71.4962 144.698C71.2616 144.506 70.9167 144.41 70.4616 144.41C70.0989 144.41 69.7682 144.474 69.4696 144.602C69.178 144.73 68.9256 144.925 68.7123 145.188L67.7416 144.442C68.0331 144.051 68.4243 143.748 68.9149 143.535C69.4127 143.315 69.9674 143.204 70.5789 143.204C71.1194 143.204 71.5887 143.293 71.9869 143.471C72.3922 143.642 72.7016 143.887 72.9149 144.207C73.1354 144.527 73.2456 144.908 73.2456 145.348C73.2456 145.59 73.2136 145.832 73.1496 146.074C73.0856 146.308 72.9647 146.557 72.7869 146.82C72.6091 147.084 72.3496 147.379 72.0082 147.706L69.4589 150.127L69.1709 149.604H73.5336V150.778H68.0296ZM77.4486 150.884C76.8584 150.884 76.325 150.735 75.8486 150.436C75.3792 150.138 75.0095 149.704 74.7392 149.135C74.469 148.559 74.3339 147.862 74.3339 147.044C74.3339 146.227 74.469 145.533 74.7392 144.964C75.0095 144.388 75.3792 143.951 75.8486 143.652C76.325 143.354 76.8584 143.204 77.4486 143.204C78.0459 143.204 78.5792 143.354 79.0486 143.652C79.5179 143.951 79.8877 144.388 80.1579 144.964C80.4352 145.533 80.5739 146.227 80.5739 147.044C80.5739 147.862 80.4352 148.559 80.1579 149.135C79.8877 149.704 79.5179 150.138 79.0486 150.436C78.5792 150.735 78.0459 150.884 77.4486 150.884ZM77.4486 149.679C77.797 149.679 78.0992 149.587 78.3552 149.402C78.6112 149.21 78.8104 148.918 78.9526 148.527C79.1019 148.136 79.1766 147.642 79.1766 147.044C79.1766 146.44 79.1019 145.946 78.9526 145.562C78.8104 145.171 78.6112 144.883 78.3552 144.698C78.0992 144.506 77.797 144.41 77.4486 144.41C77.1144 144.41 76.8157 144.506 76.5526 144.698C76.2966 144.883 76.0939 145.171 75.9446 145.562C75.8024 145.946 75.7312 146.44 75.7312 147.044C75.7312 147.642 75.8024 148.136 75.9446 148.527C76.0939 148.918 76.2966 149.21 76.5526 149.402C76.8157 149.587 77.1144 149.679 77.4486 149.679Z" fill="#8F94A4"/>
<path d="M63.6532 181.391V171.364H64.5279V181.391H63.6532ZM63.9839 180.218C63.4008 180.218 62.8426 180.136 62.3092 179.972C61.7759 179.802 61.3528 179.585 61.0399 179.322L61.5199 178.244C61.8186 178.479 62.1883 178.675 62.6292 178.831C63.0701 178.987 63.5217 179.066 63.9839 179.066C64.375 179.066 64.6915 179.023 64.9332 178.938C65.175 178.852 65.3528 178.739 65.4666 178.596C65.5803 178.447 65.6372 178.28 65.6372 178.095C65.6372 177.867 65.5555 177.686 65.3919 177.551C65.2283 177.409 65.015 177.299 64.7519 177.22C64.4959 177.135 64.2079 177.057 63.8879 176.986C63.575 176.915 63.2586 176.833 62.9386 176.74C62.6257 176.641 62.3377 176.516 62.0746 176.367C61.8186 176.211 61.6088 176.004 61.4452 175.748C61.2817 175.492 61.1999 175.165 61.1999 174.767C61.1999 174.362 61.3066 173.992 61.5199 173.658C61.7403 173.316 62.071 173.046 62.5119 172.847C62.9599 172.641 63.5252 172.538 64.2079 172.538C64.6559 172.538 65.1003 172.595 65.5412 172.708C65.9821 172.822 66.3661 172.986 66.6932 173.199L66.2559 174.276C65.9217 174.077 65.5768 173.931 65.2212 173.839C64.8657 173.739 64.5243 173.69 64.1972 173.69C63.8132 173.69 63.5003 173.736 63.2586 173.828C63.0239 173.921 62.8497 174.042 62.7359 174.191C62.6292 174.34 62.5759 174.511 62.5759 174.703C62.5759 174.931 62.6541 175.115 62.8106 175.258C62.9741 175.393 63.1839 175.499 63.4399 175.578C63.703 175.656 63.9946 175.734 64.3146 175.812C64.6346 175.883 64.951 175.965 65.2639 176.058C65.5839 176.15 65.8719 176.271 66.1279 176.42C66.391 176.57 66.6008 176.772 66.7572 177.028C66.9208 177.284 67.0026 177.608 67.0026 177.999C67.0026 178.397 66.8923 178.767 66.6719 179.108C66.4586 179.443 66.1279 179.713 65.6799 179.919C65.2319 180.118 64.6666 180.218 63.9839 180.218ZM73.9068 180.218C73.3166 180.218 72.7833 180.068 72.3068 179.77C71.8375 179.471 71.4677 179.037 71.1975 178.468C70.9273 177.892 70.7921 177.195 70.7921 176.378C70.7921 175.56 70.9273 174.867 71.1975 174.298C71.4677 173.722 71.8375 173.284 72.3068 172.986C72.7833 172.687 73.3166 172.538 73.9068 172.538C74.5041 172.538 75.0375 172.687 75.5068 172.986C75.9761 173.284 76.3459 173.722 76.6161 174.298C76.8935 174.867 77.0321 175.56 77.0321 176.378C77.0321 177.195 76.8935 177.892 76.6161 178.468C76.3459 179.037 75.9761 179.471 75.5068 179.77C75.0375 180.068 74.5041 180.218 73.9068 180.218ZM73.9068 179.012C74.2553 179.012 74.5575 178.92 74.8135 178.735C75.0695 178.543 75.2686 178.251 75.4108 177.86C75.5601 177.469 75.6348 176.975 75.6348 176.378C75.6348 175.773 75.5601 175.279 75.4108 174.895C75.2686 174.504 75.0695 174.216 74.8135 174.031C74.5575 173.839 74.2553 173.743 73.9068 173.743C73.5726 173.743 73.2739 173.839 73.0108 174.031C72.7548 174.216 72.5521 174.504 72.4028 174.895C72.2606 175.279 72.1895 175.773 72.1895 176.378C72.1895 176.975 72.2606 177.469 72.4028 177.86C72.5521 178.251 72.7548 178.543 73.0108 178.735C73.2739 178.92 73.5726 179.012 73.9068 179.012Z" fill="#8F94A4"/>
<g filter="url(#filter2_d_1_105)">
<path d="M96 178.956H110.764C113.088 179.376 117.736 176.943 117.736 163.853C117.736 160.077 119.786 151.896 130.449 155.672C136.19 156.931 143.982 160.077 146.033 143.716C147.263 136.793 153.415 124.837 160.796 138.681C163.257 143.716 169.819 148.121 175.15 141.198C180.481 134.276 186.633 135.535 190.734 141.198C194.835 146.862 200.166 147.491 204.678 136.164C207.548 130.5 212.059 127.354 219.851 131.759C222.722 132.388 228.053 135.535 231.744 114.138C232.565 110.363 237.076 99.6646 246.098 110.992C248.559 114.138 251.019 117.914 257.581 116.026C260.862 114.139 265.783 116.027 267.013 127.354C268.244 138.681 273.985 164.483 286.288 148.121C289.569 143.716 293.67 141.199 299.822 148.121C301.052 150.009 309.664 153.155 311.715 136.164C313.765 127.354 314.585 122.32 323.198 121.69C327.299 121.69 331.4 124.837 337.551 111.621C340.012 107.216 341.652 105.328 348.624 105.958C351.905 105.958 355.186 103.44 358.467 96.5182C361.747 89.5959 363.798 86.4494 372 87.0787" stroke="#DF9F32" stroke-width="3.24"/>
</g>
<line x1="220.677" y1="72" x2="220.677" y2="195" stroke="#8F94A4" stroke-opacity="0.07"/>
<line x1="152.61" y1="72" x2="152.61" y2="195" stroke="#8F94A4" stroke-opacity="0.07"/>
<line x1="288.745" y1="72" x2="288.745" y2="195" stroke="#8F94A4" stroke-opacity="0.07"/>
<line x1="321.5" y1="72" x2="321.5" y2="195" stroke="#8F94A4" stroke-opacity="0.07"/>
<line x1="350.5" y1="72" x2="350.5" y2="195" stroke="#8F94A4" stroke-opacity="0.07"/>
<line x1="118.576" y1="72" x2="118.576" y2="195" stroke="#8F94A4" stroke-opacity="0.07"/>
<line x1="254.711" y1="72" x2="254.711" y2="195" stroke="#8F94A4" stroke-opacity="0.07"/>
<line x1="186.643" y1="72" x2="186.643" y2="195" stroke="#8F94A4" stroke-opacity="0.07"/>
<line x1="372" y1="148.959" x2="96" y2="148.959" stroke="#8F94A4" stroke-opacity="0.07"/>
<line x1="372" y1="87.4595" x2="96" y2="87.4594" stroke="#8F94A4" stroke-opacity="0.07"/>
<line x1="372" y1="179.709" x2="96" y2="179.709" stroke="#8F94A4" stroke-opacity="0.07"/>
<line x1="372" y1="118.209" x2="96" y2="118.209" stroke="#8F94A4" stroke-opacity="0.07"/>
<path d="M97.9231 211.108C97.2591 211.108 96.6511 211.024 96.0991 210.856C95.5471 210.68 95.0791 210.436 94.6951 210.124L95.0911 209.14C95.4911 209.444 95.9191 209.672 96.3751 209.824C96.8311 209.976 97.3471 210.052 97.9231 210.052C98.6031 210.052 99.1031 209.932 99.4231 209.692C99.7511 209.444 99.9151 209.124 99.9151 208.732C99.9151 208.412 99.7991 208.16 99.5671 207.976C99.3351 207.784 98.9471 207.632 98.4031 207.52L97.1191 207.256C96.3591 207.096 95.7911 206.832 95.4151 206.464C95.0471 206.096 94.8631 205.6 94.8631 204.976C94.8631 204.472 94.9951 204.028 95.2591 203.644C95.5311 203.26 95.9071 202.964 96.3871 202.756C96.8671 202.54 97.4191 202.432 98.0431 202.432C98.6191 202.432 99.1511 202.52 99.6391 202.696C100.135 202.864 100.555 203.112 100.899 203.44L100.491 204.388C99.8111 203.788 98.9911 203.488 98.0311 203.488C97.4391 203.488 96.9671 203.62 96.6151 203.884C96.2711 204.148 96.0991 204.5 96.0991 204.94C96.0991 205.276 96.2071 205.544 96.4231 205.744C96.6391 205.944 96.9991 206.096 97.5031 206.2L98.7751 206.464C99.5751 206.632 100.171 206.892 100.563 207.244C100.955 207.588 101.151 208.056 101.151 208.648C101.151 209.144 101.019 209.576 100.755 209.944C100.491 210.312 100.119 210.6 99.6391 210.808C99.1591 211.008 98.5871 211.108 97.9231 211.108ZM104.524 211.108C103.108 211.108 102.4 210.32 102.4 208.744V205.144H103.612V208.756C103.612 209.228 103.708 209.576 103.9 209.8C104.092 210.024 104.396 210.136 104.812 210.136C105.268 210.136 105.636 209.984 105.916 209.68C106.204 209.376 106.348 208.968 106.348 208.456V205.144H107.56V211H106.384V210.064C106.192 210.408 105.936 210.668 105.616 210.844C105.296 211.02 104.932 211.108 104.524 211.108ZM109.268 211V205.144H110.444V206.116C110.644 205.764 110.916 205.496 111.26 205.312C111.612 205.128 112.004 205.036 112.436 205.036C113.82 205.036 114.512 205.82 114.512 207.388V211H113.3V207.46C113.3 206.956 113.2 206.588 113 206.356C112.808 206.124 112.504 206.008 112.088 206.008C111.6 206.008 111.208 206.164 110.912 206.476C110.624 206.78 110.48 207.184 110.48 207.688V211H109.268ZM138.404 211V202.54H139.448L142.58 208.384L145.7 202.54H146.72V211H145.604V204.796L142.952 209.704H142.196L139.532 204.82V211H138.404ZM151.128 211.108C150.536 211.108 150.024 210.984 149.592 210.736C149.16 210.488 148.824 210.14 148.584 209.692C148.352 209.236 148.236 208.696 148.236 208.072C148.236 207.448 148.352 206.912 148.584 206.464C148.824 206.008 149.16 205.656 149.592 205.408C150.024 205.16 150.536 205.036 151.128 205.036C151.704 205.036 152.208 205.16 152.64 205.408C153.072 205.656 153.408 206.008 153.648 206.464C153.888 206.912 154.008 207.448 154.008 208.072C154.008 208.696 153.888 209.236 153.648 209.692C153.408 210.14 153.072 210.488 152.64 210.736C152.208 210.984 151.704 211.108 151.128 211.108ZM151.128 210.172C151.624 210.172 152.024 209.992 152.328 209.632C152.632 209.272 152.784 208.752 152.784 208.072C152.784 207.392 152.632 206.876 152.328 206.524C152.024 206.164 151.624 205.984 151.128 205.984C150.624 205.984 150.22 206.164 149.916 206.524C149.612 206.876 149.46 207.392 149.46 208.072C149.46 208.752 149.612 209.272 149.916 209.632C150.22 209.992 150.624 210.172 151.128 210.172ZM155.37 211V205.144H156.546V206.116C156.746 205.764 157.018 205.496 157.362 205.312C157.714 205.128 158.106 205.036 158.538 205.036C159.922 205.036 160.614 205.82 160.614 207.388V211H159.402V207.46C159.402 206.956 159.302 206.588 159.102 206.356C158.91 206.124 158.606 206.008 158.19 206.008C157.702 206.008 157.31 206.164 157.014 206.476C156.726 206.78 156.582 207.184 156.582 207.688V211H155.37ZM186.546 211V203.584H183.546V202.54H190.782V203.584H187.782V211H186.546ZM192.883 211.108C191.467 211.108 190.759 210.32 190.759 208.744V205.144H191.971V208.756C191.971 209.228 192.067 209.576 192.259 209.8C192.451 210.024 192.755 210.136 193.171 210.136C193.627 210.136 193.995 209.984 194.275 209.68C194.563 209.376 194.707 208.968 194.707 208.456V205.144H195.919V211H194.743V210.064C194.551 210.408 194.295 210.668 193.975 210.844C193.655 211.02 193.291 211.108 192.883 211.108ZM200.375 211.108C199.415 211.108 198.659 210.84 198.107 210.304C197.555 209.76 197.279 209.02 197.279 208.084C197.279 207.484 197.399 206.956 197.639 206.5C197.887 206.036 198.227 205.676 198.659 205.42C199.091 205.164 199.587 205.036 200.147 205.036C200.955 205.036 201.591 205.296 202.055 205.816C202.519 206.328 202.751 207.036 202.751 207.94V208.348H198.455C198.543 209.564 199.187 210.172 200.387 210.172C200.723 210.172 201.051 210.12 201.371 210.016C201.699 209.912 202.007 209.74 202.295 209.5L202.655 210.34C202.391 210.58 202.051 210.768 201.635 210.904C201.219 211.04 200.799 211.108 200.375 211.108ZM200.195 205.888C199.691 205.888 199.291 206.044 198.995 206.356C198.699 206.668 198.519 207.084 198.455 207.604H201.731C201.707 207.06 201.563 206.64 201.299 206.344C201.035 206.04 200.667 205.888 200.195 205.888ZM228.575 211L225.611 202.54H226.883L229.151 209.2L231.479 202.54H232.427L234.731 209.272L237.047 202.54H238.259L235.271 211H234.227L231.935 204.424L229.619 211H228.575ZM241.45 211.108C240.49 211.108 239.734 210.84 239.182 210.304C238.63 209.76 238.354 209.02 238.354 208.084C238.354 207.484 238.474 206.956 238.714 206.5C238.962 206.036 239.302 205.676 239.734 205.42C240.166 205.164 240.662 205.036 241.222 205.036C242.03 205.036 242.666 205.296 243.13 205.816C243.594 206.328 243.826 207.036 243.826 207.94V208.348H239.53C239.618 209.564 240.262 210.172 241.462 210.172C241.798 210.172 242.126 210.12 242.446 210.016C242.774 209.912 243.082 209.74 243.37 209.5L243.73 210.34C243.466 210.58 243.126 210.768 242.71 210.904C242.294 211.04 241.874 211.108 241.45 211.108ZM241.27 205.888C240.766 205.888 240.366 206.044 240.07 206.356C239.774 206.668 239.594 207.084 239.53 207.604H242.806C242.782 207.06 242.638 206.64 242.374 206.344C242.11 206.04 241.742 205.888 241.27 205.888ZM248.291 211.108C247.843 211.108 247.447 211.008 247.103 210.808C246.759 210.608 246.503 210.34 246.335 210.004V211H245.147V202.54H246.359V206.092C246.535 205.772 246.791 205.516 247.127 205.324C247.471 205.132 247.859 205.036 248.291 205.036C248.811 205.036 249.263 205.16 249.647 205.408C250.039 205.656 250.339 206.008 250.547 206.464C250.763 206.912 250.871 207.448 250.871 208.072C250.871 208.696 250.763 209.236 250.547 209.692C250.339 210.148 250.039 210.5 249.647 210.748C249.263 210.988 248.811 211.108 248.291 211.108ZM247.991 210.172C248.495 210.172 248.895 209.992 249.191 209.632C249.495 209.272 249.647 208.752 249.647 208.072C249.647 207.392 249.495 206.876 249.191 206.524C248.895 206.164 248.495 205.984 247.991 205.984C247.487 205.984 247.083 206.164 246.779 206.524C246.483 206.876 246.335 207.392 246.335 208.072C246.335 208.752 246.483 209.272 246.779 209.632C247.083 209.992 247.487 210.172 247.991 210.172ZM276.499 211V203.584H273.499V202.54H280.735V203.584H277.735V211H276.499ZM281.639 211V202.54H282.851V206.056C283.051 205.72 283.319 205.468 283.655 205.3C283.999 205.124 284.383 205.036 284.807 205.036C286.191 205.036 286.883 205.82 286.883 207.388V211H285.671V207.46C285.671 206.956 285.571 206.588 285.371 206.356C285.179 206.124 284.875 206.008 284.459 206.008C283.971 206.008 283.579 206.164 283.283 206.476C282.995 206.78 282.851 207.184 282.851 207.688V211H281.639ZM290.641 211.108C289.225 211.108 288.517 210.32 288.517 208.744V205.144H289.729V208.756C289.729 209.228 289.825 209.576 290.017 209.8C290.209 210.024 290.513 210.136 290.929 210.136C291.385 210.136 291.753 209.984 292.033 209.68C292.321 209.376 292.465 208.968 292.465 208.456V205.144H293.677V211H292.501V210.064C292.309 210.408 292.053 210.668 291.733 210.844C291.413 211.02 291.049 211.108 290.641 211.108ZM317.584 211V202.54H322.96V203.548H318.832V206.248H322.708V207.256H318.832V211H317.584ZM323.979 211V205.144H325.155V206.188C325.459 205.492 326.091 205.104 327.051 205.024L327.447 205L327.531 206.032L326.799 206.104C325.735 206.208 325.203 206.756 325.203 207.748V211H323.979ZM328.348 203.788V202.528H329.764V203.788H328.348ZM328.456 211V205.144H329.668V211H328.456ZM356.392 211.108C355.728 211.108 355.12 211.024 354.568 210.856C354.016 210.68 353.548 210.436 353.164 210.124L353.56 209.14C353.96 209.444 354.388 209.672 354.844 209.824C355.3 209.976 355.816 210.052 356.392 210.052C357.072 210.052 357.572 209.932 357.892 209.692C358.22 209.444 358.384 209.124 358.384 208.732C358.384 208.412 358.268 208.16 358.036 207.976C357.804 207.784 357.416 207.632 356.872 207.52L355.588 207.256C354.828 207.096 354.26 206.832 353.884 206.464C353.516 206.096 353.332 205.6 353.332 204.976C353.332 204.472 353.464 204.028 353.728 203.644C354 203.26 354.376 202.964 354.856 202.756C355.336 202.54 355.888 202.432 356.512 202.432C357.088 202.432 357.62 202.52 358.108 202.696C358.604 202.864 359.024 203.112 359.368 203.44L358.96 204.388C358.28 203.788 357.46 203.488 356.5 203.488C355.908 203.488 355.436 203.62 355.084 203.884C354.74 204.148 354.568 204.5 354.568 204.94C354.568 205.276 354.676 205.544 354.892 205.744C355.108 205.944 355.468 206.096 355.972 206.2L357.244 206.464C358.044 206.632 358.64 206.892 359.032 207.244C359.424 207.588 359.62 208.056 359.62 208.648C359.62 209.144 359.488 209.576 359.224 209.944C358.96 210.312 358.588 210.6 358.108 210.808C357.628 211.008 357.056 211.108 356.392 211.108ZM362.777 211.108C362.369 211.108 362.005 211.028 361.685 210.868C361.365 210.708 361.109 210.492 360.917 210.22C360.733 209.948 360.641 209.64 360.641 209.296C360.641 208.864 360.749 208.524 360.965 208.276C361.189 208.028 361.553 207.848 362.057 207.736C362.569 207.624 363.257 207.568 364.121 207.568H364.529V207.256C364.529 206.8 364.433 206.472 364.241 206.272C364.049 206.072 363.733 205.972 363.293 205.972C362.957 205.972 362.621 206.024 362.285 206.128C361.949 206.224 361.605 206.38 361.253 206.596L360.881 205.744C361.185 205.528 361.565 205.356 362.021 205.228C362.477 205.1 362.913 205.036 363.329 205.036C364.129 205.036 364.721 205.228 365.105 205.612C365.489 205.988 365.681 206.58 365.681 207.388V211H364.541V210.028C364.397 210.364 364.173 210.628 363.869 210.82C363.565 211.012 363.201 211.108 362.777 211.108ZM363.017 210.244C363.449 210.244 363.809 210.092 364.097 209.788C364.385 209.484 364.529 209.1 364.529 208.636V208.312H364.133C363.549 208.312 363.089 208.34 362.753 208.396C362.425 208.452 362.189 208.548 362.045 208.684C361.909 208.812 361.841 208.992 361.841 209.224C361.841 209.528 361.945 209.776 362.153 209.968C362.361 210.152 362.649 210.244 363.017 210.244ZM369.846 211.108C369.11 211.108 368.562 210.92 368.202 210.544C367.842 210.168 367.662 209.624 367.662 208.912V206.08H366.522V205.144H367.662V203.38H368.874V205.144H370.686V206.08H368.874V208.816C368.874 209.24 368.962 209.56 369.138 209.776C369.322 209.992 369.618 210.1 370.026 210.1C370.154 210.1 370.278 210.088 370.398 210.064C370.518 210.032 370.638 209.996 370.758 209.956L370.95 210.868C370.83 210.94 370.662 210.996 370.446 211.036C370.238 211.084 370.038 211.108 369.846 211.108Z" fill="#8F94A4"/>
<path d="M49.3086 60.1086C48.2019 60.1086 47.1752 59.9686 46.2286 59.6886C45.2819 59.3952 44.4819 59.0019 43.8286 58.5086L44.6086 56.4886C45.2619 56.9552 45.9752 57.3152 46.7486 57.5686C47.5352 57.8219 48.3886 57.9486 49.3086 57.9486C50.3619 57.9486 51.1286 57.7752 51.6086 57.4286C52.0886 57.0686 52.3286 56.6086 52.3286 56.0486C52.3286 55.5819 52.1552 55.2152 51.8086 54.9486C51.4752 54.6819 50.8952 54.4619 50.0686 54.2886L47.8686 53.8286C45.3619 53.2952 44.1086 52.0086 44.1086 49.9686C44.1086 49.0886 44.3419 48.3219 44.8086 47.6686C45.2752 47.0152 45.9219 46.5086 46.7486 46.1486C47.5752 45.7886 48.5286 45.6086 49.6086 45.6086C50.5686 45.6086 51.4686 45.7552 52.3086 46.0486C53.1486 46.3286 53.8486 46.7286 54.4086 47.2486L53.6286 49.1686C52.5219 48.2352 51.1752 47.7686 49.5886 47.7686C48.6686 47.7686 47.9486 47.9619 47.4286 48.3486C46.9086 48.7352 46.6486 49.2419 46.6486 49.8686C46.6486 50.3486 46.8086 50.7352 47.1286 51.0286C47.4486 51.3086 47.9952 51.5286 48.7686 51.6886L50.9486 52.1486C52.2686 52.4286 53.2486 52.8686 53.8886 53.4686C54.5419 54.0686 54.8686 54.8686 54.8686 55.8686C54.8686 56.7086 54.6419 57.4486 54.1886 58.0886C53.7352 58.7286 53.0886 59.2286 52.2486 59.5886C51.4219 59.9352 50.4419 60.1086 49.3086 60.1086ZM61.2081 60.1086C58.6214 60.1086 57.3281 58.8286 57.3281 56.2686V52.0086H55.4481V50.1286H57.3281V47.2086H59.8281V50.1286H62.7881V52.0086H59.8281V56.1286C59.8281 56.7686 59.9681 57.2486 60.2481 57.5686C60.5281 57.8886 60.9814 58.0486 61.6081 58.0486C61.7948 58.0486 61.9881 58.0286 62.1881 57.9886C62.3881 57.9352 62.5948 57.8819 62.8081 57.8286L63.1881 59.6686C62.9481 59.8019 62.6414 59.9086 62.2681 59.9886C61.9081 60.0686 61.5548 60.1086 61.2081 60.1086ZM67.6239 60.1086C66.9172 60.1086 66.2839 59.9752 65.7239 59.7086C65.1772 59.4286 64.7439 59.0552 64.4239 58.5886C64.1172 58.1219 63.9639 57.5952 63.9639 57.0086C63.9639 56.2886 64.1505 55.7219 64.5239 55.3086C64.8972 54.8819 65.5039 54.5752 66.3439 54.3886C67.1839 54.2019 68.3105 54.1086 69.7239 54.1086H70.4239V53.6886C70.4239 53.0219 70.2772 52.5419 69.9839 52.2486C69.6905 51.9552 69.1972 51.8086 68.5039 51.8086C67.9572 51.8086 67.3972 51.8952 66.8239 52.0686C66.2505 52.2286 65.6705 52.4819 65.0839 52.8286L64.3639 51.1286C64.7105 50.8886 65.1172 50.6819 65.5839 50.5086C66.0639 50.3219 66.5639 50.1819 67.0839 50.0886C67.6172 49.9819 68.1172 49.9286 68.5839 49.9286C70.0105 49.9286 71.0705 50.2619 71.7639 50.9286C72.4572 51.5819 72.8039 52.6019 72.8039 53.9886V59.9086H70.4639V58.3486C70.2372 58.8952 69.8772 59.3286 69.3839 59.6486C68.8905 59.9552 68.3039 60.1086 67.6239 60.1086ZM68.1439 58.3886C68.7972 58.3886 69.3372 58.1619 69.7639 57.7086C70.2039 57.2552 70.4239 56.6819 70.4239 55.9886V55.5486H69.7439C68.4905 55.5486 67.6172 55.6486 67.1239 55.8486C66.6439 56.0352 66.4039 56.3819 66.4039 56.8886C66.4039 57.3286 66.5572 57.6886 66.8639 57.9686C67.1705 58.2486 67.5972 58.3886 68.1439 58.3886ZM79.8214 60.1086C77.2347 60.1086 75.9414 58.8286 75.9414 56.2686V52.0086H74.0614V50.1286H75.9414V47.2086H78.4414V50.1286H81.4014V52.0086H78.4414V56.1286C78.4414 56.7686 78.5814 57.2486 78.8614 57.5686C79.1414 57.8886 79.5947 58.0486 80.2214 58.0486C80.408 58.0486 80.6014 58.0286 80.8014 57.9886C81.0014 57.9352 81.208 57.8819 81.4214 57.8286L81.8014 59.6686C81.5614 59.8019 81.2547 59.9086 80.8814 59.9886C80.5214 60.0686 80.168 60.1086 79.8214 60.1086ZM82.8572 48.0286V45.5886H85.6572V48.0286H82.8572ZM83.0172 59.9086V50.1286H85.5172V59.9086H83.0172ZM91.6948 60.1086C90.8682 60.1086 90.0948 60.0086 89.3748 59.8086C88.6548 59.6086 88.0548 59.3219 87.5748 58.9486L88.2148 57.3086C88.7082 57.6419 89.2615 57.9019 89.8748 58.0886C90.4882 58.2619 91.1015 58.3486 91.7148 58.3486C92.3548 58.3486 92.8282 58.2419 93.1348 58.0286C93.4548 57.8019 93.6148 57.5086 93.6148 57.1486C93.6148 56.5886 93.2015 56.2286 92.3748 56.0686L90.3748 55.6886C88.6815 55.3686 87.8348 54.4886 87.8348 53.0486C87.8348 52.4086 88.0082 51.8552 88.3548 51.3886C88.7148 50.9219 89.2082 50.5619 89.8348 50.3086C90.4615 50.0552 91.1815 49.9286 91.9948 49.9286C92.6882 49.9286 93.3548 50.0286 93.9948 50.2286C94.6348 50.4152 95.1815 50.7019 95.6348 51.0886L94.9548 52.7286C94.5682 52.4086 94.1015 52.1552 93.5548 51.9686C93.0215 51.7819 92.5082 51.6886 92.0148 51.6886C91.3615 51.6886 90.8748 51.8019 90.5548 52.0286C90.2482 52.2552 90.0948 52.5552 90.0948 52.9286C90.0948 53.5152 90.4748 53.8752 91.2348 54.0086L93.2348 54.3886C94.1015 54.5486 94.7548 54.8419 95.1948 55.2686C95.6482 55.6952 95.8748 56.2686 95.8748 56.9886C95.8748 57.9619 95.4948 58.7286 94.7348 59.2886C93.9748 59.8352 92.9615 60.1086 91.6948 60.1086ZM102.263 60.1086C99.6761 60.1086 98.3828 58.8286 98.3828 56.2686V52.0086H96.5028V50.1286H98.3828V47.2086H100.883V50.1286H103.843V52.0086H100.883V56.1286C100.883 56.7686 101.023 57.2486 101.303 57.5686C101.583 57.8886 102.036 58.0486 102.663 58.0486C102.849 58.0486 103.043 58.0286 103.243 57.9886C103.443 57.9352 103.649 57.8819 103.863 57.8286L104.243 59.6686C104.003 59.8019 103.696 59.9086 103.323 59.9886C102.963 60.0686 102.609 60.1086 102.263 60.1086ZM105.299 48.0286V45.5886H108.099V48.0286H105.299ZM105.459 59.9086V50.1286H107.959V59.9086H105.459ZM115.076 60.1086C114.05 60.1086 113.156 59.9019 112.396 59.4886C111.636 59.0619 111.05 58.4619 110.636 57.6886C110.223 56.9152 110.016 56.0086 110.016 54.9686C110.016 53.9286 110.223 53.0352 110.636 52.2886C111.05 51.5286 111.636 50.9486 112.396 50.5486C113.156 50.1352 114.05 49.9286 115.076 49.9286C115.703 49.9286 116.323 50.0286 116.936 50.2286C117.55 50.4286 118.056 50.7086 118.456 51.0686L117.716 52.8086C117.37 52.5019 116.976 52.2686 116.536 52.1086C116.11 51.9486 115.696 51.8686 115.296 51.8686C114.43 51.8686 113.756 52.1419 113.276 52.6886C112.81 53.2219 112.576 53.9886 112.576 54.9886C112.576 55.9752 112.81 56.7552 113.276 57.3286C113.756 57.8886 114.43 58.1686 115.296 58.1686C115.683 58.1686 116.096 58.0886 116.536 57.9286C116.976 57.7686 117.37 57.5286 117.716 57.2086L118.456 58.9686C118.056 59.3152 117.543 59.5952 116.916 59.8086C116.303 60.0086 115.69 60.1086 115.076 60.1086ZM123.57 60.1086C122.743 60.1086 121.97 60.0086 121.25 59.8086C120.53 59.6086 119.93 59.3219 119.45 58.9486L120.09 57.3086C120.583 57.6419 121.136 57.9019 121.75 58.0886C122.363 58.2619 122.976 58.3486 123.59 58.3486C124.23 58.3486 124.703 58.2419 125.01 58.0286C125.33 57.8019 125.49 57.5086 125.49 57.1486C125.49 56.5886 125.076 56.2286 124.25 56.0686L122.25 55.6886C120.556 55.3686 119.71 54.4886 119.71 53.0486C119.71 52.4086 119.883 51.8552 120.23 51.3886C120.59 50.9219 121.083 50.5619 121.71 50.3086C122.336 50.0552 123.056 49.9286 123.87 49.9286C124.563 49.9286 125.23 50.0286 125.87 50.2286C126.51 50.4152 127.056 50.7019 127.51 51.0886L126.83 52.7286C126.443 52.4086 125.976 52.1552 125.43 51.9686C124.896 51.7819 124.383 51.6886 123.89 51.6886C123.236 51.6886 122.75 51.8019 122.43 52.0286C122.123 52.2552 121.97 52.5552 121.97 52.9286C121.97 53.5152 122.35 53.8752 123.11 54.0086L125.11 54.3886C125.976 54.5486 126.63 54.8419 127.07 55.2686C127.523 55.6952 127.75 56.2686 127.75 56.9886C127.75 57.9619 127.37 58.7286 126.61 59.2886C125.85 59.8352 124.836 60.1086 123.57 60.1086Z" fill="black"/>
<defs>
<filter id="filter0_d_1_105" x="0" y="0" width="430" height="254" filterUnits="userSpaceOnUse" color-interpolation-filters="sRGB">
<feFlood flood-opacity="0" result="BackgroundImageFix"/>
<feColorMatrix in="SourceAlpha" type="matrix" values="0 0 0 0 0 0 0 0 0 0 0 0 0 0 0 0 0 0 127 0" result="hardAlpha"/>
<feOffset/>
<feGaussianBlur stdDeviation="15"/>
<feComposite in2="hardAlpha" operator="out"/>
<feColorMatrix type="matrix" values="0 0 0 0 0 0 0 0 0 0 0 0 0 0 0 0 0 0 0.07 0"/>
<feBlend mode="normal" in2="BackgroundImageFix" result="effect1_dropShadow_1_105"/>
<feBlend mode="normal" in="SourceGraphic" in2="effect1_dropShadow_1_105" result="shape"/>
</filter>
<filter id="filter1_d_1_105" x="11.4" y="12.72" width="413.2" height="239.2" filterUnits="userSpaceOnUse" color-interpolation-filters="sRGB">
<feFlood flood-opacity="0" result="BackgroundImageFix"/>
<feColorMatrix in="SourceAlpha" type="matrix" values="0 0 0 0 0 0 0 0 0 0 0 0 0 0 0 0 0 0 127 0" result="hardAlpha"/>
<feOffset dy="4.32"/>
<feGaussianBlur stdDeviation="10.8"/>
<feComposite in2="hardAlpha" operator="out"/>
<feColorMatrix type="matrix" values="0 0 0 0 0.905882 0 0 0 0 0.309804 0 0 0 0 0.141176 0 0 0 0.1 0"/>
<feBlend mode="normal" in2="BackgroundImageFix" result="effect1_dropShadow_1_105"/>
<feBlend mode="normal" in="SourceGraphic" in2="effect1_dropShadow_1_105" result="shape"/>
</filter>
<filter id="filter2_d_1_105" x="91.68" y="85.3802" width="284.764" height="103.881" filterUnits="userSpaceOnUse" color-interpolation-filters="sRGB">
<feFlood flood-opacity="0" result="BackgroundImageFix"/>
<feColorMatrix in="SourceAlpha" type="matrix" values="0 0 0 0 0 0 0 0 0 0 0 0 0 0 0 0 0 0 127 0" result="hardAlpha"/>
<feOffset dy="4.32"/>
<feGaussianBlur stdDeviation="2.16"/>
<feComposite in2="hardAlpha" operator="out"/>
<feColorMatrix type="matrix" values="0 0 0 0 0.905882 0 0 0 0 0.309804 0 0 0 0 0.141176 0 0 0 0.2 0"/>
<feBlend mode="normal" in2="BackgroundImageFix" result="effect1_dropShadow_1_105"/>
<feBlend mode="normal" in="SourceGraphic" in2="effect1_dropShadow_1_105" result="shape"/>
</filter>
</defs>
</svg>
